<svg width="58" height="44" viewBox="0 0 58 44" fill="none" xmlns="http://www.w3.org/2000/svg">
<path d="M32.0031 43.0864C10.0182 46.265 1.87321 32.9328 0.548823 25.8694C-1.25198 16.2677 8.60553 16.1572 12.1372 17.5921C6.30992 6.20234 14.5653 2.25125 19.4214 1.69942C26.3082 1.16966 29.1336 6.77625 29.6854 9.64576C28.8908 1.43455 34.8726 0.0439386 37.9628 0.375036C47.2336 1.16967 46.2398 9.64576 44.5848 13.2877C50.4121 7.72525 56.3571 12.6256 56.8354 16.9299C57.7183 24.8762 53.9879 39.9079 32.0031 43.0864Z" fill="#FFC044" stroke="#3E1D08" stroke-width="0.662195" stroke-linejoin="round"/>
<path d="M25.7109 16.2686C26.6593 16.2686 27.6116 17.1308 28.2656 18.7129C28.7363 19.8515 29.0225 21.3027 29.0225 22.8906C29.0224 24.7682 28.6227 26.4514 27.9932 27.6533C27.3554 28.8709 26.5318 29.5127 25.7109 29.5127C24.8903 29.5125 24.0674 28.8707 23.4297 27.6533C22.8001 26.4514 22.4004 24.7682 22.4004 22.8906C22.4004 21.0131 22.8001 19.3299 23.4297 18.1279C24.0674 16.9105 24.8903 16.2688 25.7109 16.2686Z" fill="#FCFDED" stroke="#3E1D08" stroke-width="0.662195"/>
<path d="M27.0361 18.2549C27.2947 18.2549 27.5646 18.3746 27.8311 18.6387C28.099 18.9042 28.3479 19.3023 28.5488 19.8115C28.8429 20.5568 29.0234 21.5117 29.0234 22.5596C29.0234 23.7991 28.7707 24.9047 28.3789 25.6885C27.9771 26.4921 27.4832 26.8633 27.0361 26.8633C26.5892 26.8631 26.0951 26.4919 25.6934 25.6885C25.3016 24.9047 25.0499 23.799 25.0498 22.5596C25.0498 21.3199 25.3015 20.2135 25.6934 19.4297C26.0951 18.6262 26.5892 18.255 27.0361 18.2549Z" fill="#3E1D08" stroke="#3E1D08" stroke-width="0.662195"/>
<path d="M34.3193 16.2686C35.2677 16.2686 36.22 17.1308 36.874 18.7129C37.3447 19.8515 37.6309 21.3027 37.6309 22.8906C37.6308 24.7682 37.2311 26.4514 36.6016 27.6533C35.9638 28.8709 35.1402 29.5127 34.3193 29.5127C33.4987 29.5125 32.6758 28.8707 32.0381 27.6533C31.4085 26.4514 31.0088 24.7682 31.0088 22.8906C31.0088 21.0131 31.4085 19.3299 32.0381 18.1279C32.6758 16.9105 33.4987 16.2688 34.3193 16.2686Z" fill="#FCFDED" stroke="#3E1D08" stroke-width="0.662195"/>
<path d="M35.6436 18.2549C35.9022 18.2549 36.1721 18.3746 36.4385 18.6387C36.7064 18.9042 36.9553 19.3023 37.1562 19.8115C37.4503 20.5568 37.6309 21.5117 37.6309 22.5596C37.6308 23.7991 37.3782 24.9047 36.9863 25.6885C36.5845 26.4921 36.0906 26.8633 35.6436 26.8633C35.1966 26.8631 34.7025 26.4919 34.3008 25.6885C33.909 24.9047 33.6573 23.799 33.6572 22.5596C33.6572 21.3199 33.9089 20.2135 34.3008 19.4297C34.7025 18.6262 35.1966 18.255 35.6436 18.2549Z" fill="#3E1D08" stroke="#3E1D08" stroke-width="0.662195"/>
<path d="M27.0352 32.8224C28.3595 33.595 31.207 34.4779 32.0016 31.8291" stroke="#3E1D08" stroke-width="0.662195" stroke-linecap="round"/>
</svg>
