<svg width="314" height="289" viewBox="0 0 314 289" fill="none" xmlns="http://www.w3.org/2000/svg">
<mask id="path-1-inside-1_50_4792" fill="white">
<path fill-rule="evenodd" clip-rule="evenodd" d="M314 235.588C312.681 194.764 281.901 164.979 273.056 166.339C268.247 167.079 265.655 192.608 265.656 198.159C265.656 207.643 277.913 206.729 281.925 232.348C283.173 241.189 287.056 254.563 292.647 237.855C292.679 237.758 292.823 237.745 292.852 237.843C294.844 244.559 300.06 252.854 302.874 237.682C302.895 237.574 303.053 237.549 303.085 237.654C305.242 244.596 311.703 253.452 313.999 235.605C314 235.6 314.001 235.594 314 235.588ZM219.097 7.3725C215.434 2.94667 209.85 -0.443518 201.864 0.0472997C196.343 0.38665 192.41 1.89694 189.742 4.23675C187.538 6.16919 186.258 8.61536 185.632 11.2866C182.444 7.75018 177.936 4.8058 171.846 3.48773C165.007 2.00764 156.229 2.5892 145.151 6.59417C124.646 14.0071 111.932 22.4908 104.62 30.9819C97.2893 39.4942 95.4027 48.0031 96.5512 55.3481C97.9832 64.5046 103.702 69.8048 108.182 72.2836C106.43 72.6239 104.529 73.3766 102.773 74.7465C99.7873 77.0763 97.3152 81.1185 96.6411 87.7065C92.1338 85.8658 85.7681 84.9141 80.2182 87.7534C74.2591 90.8021 69.5508 98.0531 68.9311 112.357C67.3582 112.464 65.6533 112.787 64.018 113.402C60.5771 114.695 57.3799 117.31 56.5092 121.916C55.6502 126.462 57.0997 132.753 62.4106 141.332C67.25 149.15 71.8267 153.608 75.9555 155.82C78.3309 157.397 82.9752 158.822 89.0659 159.165C94.9636 159.498 102.292 158.822 110.391 156.235C110.403 156.667 110.419 157.22 110.443 157.875C110.506 159.603 110.614 162.052 110.796 164.943C111.161 170.72 111.824 178.277 113.016 185.359C114.172 192.224 115.843 198.767 118.293 202.784C125.581 214.727 130.852 218.206 135.293 221.894C160.068 242.466 198.661 247.014 232.373 227.119C235.866 225.058 239.305 222.734 242.671 220.14C247.277 216.591 255.475 207.92 261.016 195.96C266.402 184.334 269.296 169.552 263.887 153.339C267.872 154.255 271.417 153.353 274.457 151.326C277.85 149.064 280.595 145.42 282.707 141.415C284.823 137.401 286.335 132.96 287.231 129.027C288.12 125.123 288.425 121.612 288.044 119.489C287.328 115.496 285.778 110.265 281.103 106.046C277.487 102.783 272.075 100.194 263.916 99.186C270.615 97.7588 277.889 95.1754 284.265 91.559C293.232 86.4729 300.617 79.2285 301.871 70.1059L301.874 70.0786L301.876 70.0512C302.136 66.2738 302.185 62.0213 301.938 57.5414C301.198 44.1393 297.794 28.5603 289.295 17.5854C285.035 12.0831 279.488 7.73231 272.363 5.41351C265.241 3.09585 256.603 2.82764 246.188 5.38812L246.143 5.39886L246.099 5.41546C240.43 7.5214 231.121 12.3259 224.628 19.1537C223.932 15.6295 222.205 11.1281 219.097 7.3725Z"/>
</mask>
<path fill-rule="evenodd" clip-rule="evenodd" d="M314 235.588C312.681 194.764 281.901 164.979 273.056 166.339C268.247 167.079 265.655 192.608 265.656 198.159C265.656 207.643 277.913 206.729 281.925 232.348C283.173 241.189 287.056 254.563 292.647 237.855C292.679 237.758 292.823 237.745 292.852 237.843C294.844 244.559 300.06 252.854 302.874 237.682C302.895 237.574 303.053 237.549 303.085 237.654C305.242 244.596 311.703 253.452 313.999 235.605C314 235.6 314.001 235.594 314 235.588ZM219.097 7.3725C215.434 2.94667 209.85 -0.443518 201.864 0.0472997C196.343 0.38665 192.41 1.89694 189.742 4.23675C187.538 6.16919 186.258 8.61536 185.632 11.2866C182.444 7.75018 177.936 4.8058 171.846 3.48773C165.007 2.00764 156.229 2.5892 145.151 6.59417C124.646 14.0071 111.932 22.4908 104.62 30.9819C97.2893 39.4942 95.4027 48.0031 96.5512 55.3481C97.9832 64.5046 103.702 69.8048 108.182 72.2836C106.43 72.6239 104.529 73.3766 102.773 74.7465C99.7873 77.0763 97.3152 81.1185 96.6411 87.7065C92.1338 85.8658 85.7681 84.9141 80.2182 87.7534C74.2591 90.8021 69.5508 98.0531 68.9311 112.357C67.3582 112.464 65.6533 112.787 64.018 113.402C60.5771 114.695 57.3799 117.31 56.5092 121.916C55.6502 126.462 57.0997 132.753 62.4106 141.332C67.25 149.15 71.8267 153.608 75.9555 155.82C78.3309 157.397 82.9752 158.822 89.0659 159.165C94.9636 159.498 102.292 158.822 110.391 156.235C110.403 156.667 110.419 157.22 110.443 157.875C110.506 159.603 110.614 162.052 110.796 164.943C111.161 170.72 111.824 178.277 113.016 185.359C114.172 192.224 115.843 198.767 118.293 202.784C125.581 214.727 130.852 218.206 135.293 221.894C160.068 242.466 198.661 247.014 232.373 227.119C235.866 225.058 239.305 222.734 242.671 220.14C247.277 216.591 255.475 207.92 261.016 195.96C266.402 184.334 269.296 169.552 263.887 153.339C267.872 154.255 271.417 153.353 274.457 151.326C277.85 149.064 280.595 145.42 282.707 141.415C284.823 137.401 286.335 132.96 287.231 129.027C288.12 125.123 288.425 121.612 288.044 119.489C287.328 115.496 285.778 110.265 281.103 106.046C277.487 102.783 272.075 100.194 263.916 99.186C270.615 97.7588 277.889 95.1754 284.265 91.559C293.232 86.4729 300.617 79.2285 301.871 70.1059L301.874 70.0786L301.876 70.0512C302.136 66.2738 302.185 62.0213 301.938 57.5414C301.198 44.1393 297.794 28.5603 289.295 17.5854C285.035 12.0831 279.488 7.73231 272.363 5.41351C265.241 3.09585 256.603 2.82764 246.188 5.38812L246.143 5.39886L246.099 5.41546C240.43 7.5214 231.121 12.3259 224.628 19.1537C223.932 15.6295 222.205 11.1281 219.097 7.3725Z" fill="#FFC044"/>
<path d="M314 235.588L315 235.556L315 235.556L314 235.588ZM273.056 166.339L272.904 165.351H272.904L273.056 166.339ZM265.656 198.159L264.656 198.159V198.159L265.656 198.159ZM281.925 232.348L282.913 232.193L282.914 232.201L282.915 232.208L281.925 232.348ZM292.647 237.855L293.595 238.172L293.595 238.172L292.647 237.855ZM292.852 237.843L291.893 238.127L291.893 238.127L292.852 237.843ZM302.874 237.682L301.891 237.5L301.892 237.497L302.874 237.682ZM303.085 237.654L304.04 237.355L304.04 237.357L303.085 237.654ZM313.999 235.605L314.992 235.728L314.991 235.733L313.999 235.605ZM219.097 7.3725L219.868 6.7349L219.868 6.73491L219.097 7.3725ZM201.864 0.0472997L201.802 -0.950816L201.802 -0.950817L201.864 0.0472997ZM189.742 4.23675L189.082 3.48487L189.082 3.48486L189.742 4.23675ZM185.632 11.2866L186.606 11.5145L186.17 13.3764L184.89 11.9562L185.632 11.2866ZM171.846 3.48773L172.058 2.51035L172.058 2.51036L171.846 3.48773ZM145.151 6.59417L144.811 5.65375V5.65375L145.151 6.59417ZM104.62 30.9819L103.862 30.3293L103.862 30.3293L104.62 30.9819ZM96.5512 55.3481L95.5632 55.5026V55.5026L96.5512 55.3481ZM108.182 72.2836L108.666 71.4086L111.074 72.7408L108.373 73.2653L108.182 72.2836ZM102.773 74.7465L102.158 73.9581L102.158 73.9581L102.773 74.7465ZM96.6411 87.7065L97.6359 87.8083L97.4999 89.1374L96.263 88.6323L96.6411 87.7065ZM80.2182 87.7534L79.7628 86.8631L79.7628 86.8631L80.2182 87.7534ZM68.9311 112.357L69.9302 112.4L69.8915 113.294L68.9992 113.355L68.9311 112.357ZM64.018 113.402L63.6662 112.466L63.6662 112.466L64.018 113.402ZM56.5092 121.916L55.5266 121.731V121.731L56.5092 121.916ZM62.4106 141.332L61.5603 141.859V141.859L62.4106 141.332ZM75.9555 155.82L76.4277 154.938L76.4693 154.961L76.5086 154.987L75.9555 155.82ZM89.0659 159.165L89.0096 160.164V160.164L89.0659 159.165ZM110.391 156.235L110.087 155.282L111.353 154.878L111.391 156.207L110.391 156.235ZM110.443 157.875L109.443 157.912V157.912L110.443 157.875ZM110.796 164.943L109.798 165.006V165.006L110.796 164.943ZM113.016 185.359L112.03 185.525V185.525L113.016 185.359ZM118.293 202.784L117.44 203.305V203.305L118.293 202.784ZM135.293 221.894L135.932 221.125V221.125L135.293 221.894ZM232.373 227.119L232.882 227.98H232.882L232.373 227.119ZM242.671 220.14L243.282 220.932H243.282L242.671 220.14ZM261.016 195.96L261.923 196.381L261.923 196.381L261.016 195.96ZM263.887 153.339L262.939 153.656L262.375 151.966L264.111 152.365L263.887 153.339ZM274.457 151.326L275.012 152.158L275.012 152.158L274.457 151.326ZM282.707 141.415L283.591 141.882L283.591 141.882L282.707 141.415ZM287.231 129.027L288.206 129.249L288.206 129.249L287.231 129.027ZM288.044 119.489L289.029 119.312L289.029 119.312L288.044 119.489ZM281.103 106.046L281.773 105.304L281.773 105.304L281.103 106.046ZM263.916 99.186L263.794 100.178L263.708 98.2079L263.916 99.186ZM284.265 91.559L284.758 92.4288H284.758L284.265 91.559ZM301.871 70.1059L300.88 69.9697L300.881 69.9645L301.871 70.1059ZM301.874 70.0786L302.872 70.1498L302.869 70.185L302.864 70.22L301.874 70.0786ZM301.876 70.0512L302.874 70.1199L302.874 70.1225L301.876 70.0512ZM301.938 57.5414L300.939 57.5966V57.5966L301.938 57.5414ZM289.295 17.5854L290.086 16.9731L290.086 16.9731L289.295 17.5854ZM272.363 5.41351L272.672 4.4626V4.4626L272.363 5.41351ZM246.188 5.38812L246.427 6.35923L246.421 6.3607L246.188 5.38812ZM246.143 5.39886L245.79 4.46339L245.849 4.44101L245.91 4.42628L246.143 5.39886ZM246.099 5.41546L246.452 6.35095L246.447 6.35287L246.099 5.41546ZM224.628 19.1537L225.353 19.8429L224.022 21.2426L223.647 19.3476L224.628 19.1537ZM314 235.588L313.001 235.621C312.349 215.449 304.415 197.986 295.54 185.731C291.103 179.604 286.448 174.805 282.384 171.633C280.351 170.046 278.486 168.883 276.889 168.161C275.266 167.428 274.031 167.201 273.208 167.328L273.056 166.339L272.904 165.351C274.293 165.137 275.954 165.544 277.712 166.339C279.496 167.145 281.498 168.404 283.615 170.056C287.851 173.362 292.632 178.306 297.16 184.558C306.216 197.062 314.332 214.903 315 235.556L314 235.588ZM273.056 166.339L273.208 167.328C273.026 167.356 272.667 167.544 272.184 168.254C271.722 168.932 271.26 169.921 270.813 171.178C269.922 173.683 269.159 177.052 268.537 180.617C267.295 187.747 266.656 195.457 266.656 198.159L265.656 198.159L264.656 198.159C264.656 195.309 265.312 187.48 266.567 180.273C267.195 176.67 267.981 173.171 268.929 170.508C269.401 169.18 269.93 168.01 270.531 167.128C271.109 166.279 271.883 165.508 272.904 165.351L273.056 166.339ZM265.656 198.159L266.656 198.159C266.656 200.27 267.323 201.788 268.44 203.307C269.011 204.083 269.695 204.855 270.483 205.713C271.261 206.562 272.139 207.495 273.045 208.552C276.727 212.847 280.877 219.193 282.913 232.193L281.925 232.348L280.937 232.503C278.961 219.884 274.977 213.878 271.527 209.853C270.65 208.83 269.808 207.936 269.009 207.065C268.219 206.204 267.469 205.363 266.828 204.491C265.521 202.714 264.656 200.79 264.656 198.159L265.656 198.159ZM281.925 232.348L282.915 232.208C283.223 234.387 283.692 236.835 284.304 239.018C284.925 241.235 285.662 243.053 286.449 244.071C286.841 244.578 287.154 244.765 287.356 244.813C287.5 244.847 287.744 244.85 288.155 244.513C288.592 244.155 289.132 243.474 289.748 242.31C290.358 241.159 291.01 239.595 291.699 237.538L292.647 237.855L293.595 238.172C292.886 240.292 292.194 241.965 291.516 243.246C290.845 244.514 290.155 245.46 289.422 246.06C288.664 246.681 287.798 246.972 286.897 246.76C286.055 246.561 285.387 245.967 284.867 245.294C283.828 243.952 283.01 241.813 282.378 239.558C281.736 237.269 281.252 234.73 280.935 232.488L281.925 232.348ZM292.647 237.855L291.699 237.538C291.86 237.055 292.29 236.806 292.681 236.778C293.095 236.749 293.637 236.973 293.811 237.559L292.852 237.843L291.893 238.127C292.038 238.615 292.494 238.796 292.821 238.773C293.124 238.752 293.466 238.558 293.595 238.172L292.647 237.855ZM292.852 237.843L293.811 237.559C294.293 239.185 294.967 240.895 295.74 242.305C296.537 243.761 297.347 244.726 298.026 245.089C298.327 245.25 298.542 245.26 298.717 245.21C298.912 245.154 299.217 244.977 299.594 244.462C300.37 243.402 301.193 241.266 301.891 237.5L302.874 237.682L303.858 237.864C303.149 241.684 302.264 244.2 301.208 245.643C300.669 246.379 300.028 246.915 299.267 247.133C298.485 247.356 297.734 247.2 297.084 246.853C295.858 246.199 294.814 244.779 293.985 243.265C293.131 241.705 292.407 239.859 291.893 238.127L292.852 237.843ZM302.874 237.682L301.892 237.497C301.994 236.951 302.44 236.655 302.832 236.599C303.245 236.539 303.843 236.728 304.04 237.355L303.085 237.654L302.131 237.953C302.295 238.475 302.798 238.624 303.119 238.578C303.419 238.534 303.775 238.305 303.857 237.867L302.874 237.682ZM303.085 237.654L304.04 237.357C304.558 239.024 305.334 240.8 306.228 242.246C307.153 243.741 308.089 244.694 308.855 244.994C309.19 245.126 309.456 245.119 309.706 245.01C309.983 244.889 310.359 244.589 310.776 243.908C311.623 242.525 312.438 239.909 313.008 235.477L313.999 235.605L314.991 235.733C314.413 240.225 313.559 243.194 312.481 244.953C311.936 245.843 311.285 246.503 310.505 246.843C309.698 247.195 308.876 247.15 308.125 246.856C306.719 246.305 305.492 244.859 304.527 243.298C303.532 241.689 302.691 239.754 302.13 237.95L303.085 237.654ZM313.999 235.605L313.007 235.482C313.006 235.493 313.004 235.51 313.002 235.532C313.001 235.552 313 235.583 313.001 235.621L314 235.588L315 235.556C315.003 235.636 314.995 235.7 314.992 235.728L313.999 235.605ZM219.097 7.3725L218.327 8.01009C214.838 3.7948 209.549 0.576872 201.925 1.04542L201.864 0.0472997L201.802 -0.950817C210.151 -1.46391 216.03 2.09853 219.868 6.7349L219.097 7.3725ZM201.864 0.0472997L201.925 1.04542C196.551 1.37576 192.854 2.83749 190.401 4.98865L189.742 4.23675L189.082 3.48486C191.966 0.956388 196.135 -0.602464 201.802 -0.950816L201.864 0.0472997ZM189.742 4.23675L190.401 4.98863C188.379 6.76201 187.192 9.01224 186.606 11.5145L185.632 11.2866L184.659 11.0586C185.323 8.21848 186.697 5.57637 189.082 3.48487L189.742 4.23675ZM185.632 11.2866L184.89 11.9562C181.836 8.56935 177.512 5.73709 171.635 4.4651L171.846 3.48773L172.058 2.51036C178.361 3.87452 183.052 6.93101 186.375 10.6169L185.632 11.2866ZM171.846 3.48773L171.635 4.4651C165.026 3.03484 156.443 3.5751 145.491 7.5346L145.151 6.59417L144.811 5.65375C156.015 1.6033 164.988 0.980441 172.058 2.51035L171.846 3.48773ZM145.151 6.59417L145.491 7.5346C125.077 14.9149 112.536 23.3211 105.377 31.6344L104.62 30.9819L103.862 30.3293C111.327 21.6605 124.216 13.0993 144.811 5.65375L145.151 6.59417ZM104.62 30.9819L105.377 31.6344C98.2227 39.9427 96.4396 48.1614 97.5392 55.1936L96.5512 55.3481L95.5632 55.5026C94.3658 47.8448 96.3559 39.0456 103.862 30.3293L104.62 30.9819ZM96.5512 55.3481L97.5392 55.1936C98.9121 63.9725 104.385 69.0397 108.666 71.4086L108.182 72.2836L107.698 73.1586C103.019 70.5699 97.0543 65.0368 95.5632 55.5026L96.5512 55.3481ZM108.182 72.2836L108.373 73.2653C106.758 73.5789 105.006 74.2725 103.388 75.5349L102.773 74.7465L102.158 73.9581C104.051 72.4807 106.102 71.6688 107.991 71.302L108.182 72.2836ZM102.773 74.7465L103.388 75.5349C100.657 77.6659 98.2879 81.4363 97.6359 87.8083L96.6411 87.7065L95.6463 87.6047C96.3425 80.8007 98.9173 76.4868 102.158 73.9581L102.773 74.7465ZM96.6411 87.7065L96.263 88.6323C91.9039 86.8521 85.8665 85.9871 80.6737 88.6436L80.2182 87.7534L79.7628 86.8631C85.6698 83.8412 92.3638 84.8795 97.0191 86.7807L96.6411 87.7065ZM80.2182 87.7534L80.6737 88.6436C75.1662 91.4613 70.5419 98.2794 69.9302 112.4L68.9311 112.357L67.9321 112.314C68.5597 97.8268 73.352 90.1429 79.7628 86.8631L80.2182 87.7534ZM68.9311 112.357L68.9992 113.355C67.5094 113.456 65.9019 113.762 64.3698 114.338L64.018 113.402L63.6662 112.466C65.4048 111.812 67.2069 111.472 68.863 111.359L68.9311 112.357ZM64.018 113.402L64.3699 114.338C61.1543 115.547 58.2798 117.933 57.4919 122.102L56.5092 121.916L55.5266 121.731C56.48 116.687 60 113.844 63.6662 112.466L64.018 113.402ZM56.5092 121.916L57.4919 122.102C56.7013 126.286 58.0015 132.31 63.2609 140.806L62.4106 141.332L61.5603 141.859C56.1978 133.196 54.5992 126.639 55.5266 121.731L56.5092 121.916ZM62.4106 141.332L63.2609 140.806C68.0504 148.544 72.5125 152.841 76.4277 154.938L75.9555 155.82L75.4834 156.701C71.1409 154.375 66.4496 149.757 61.5603 141.859L62.4106 141.332ZM75.9555 155.82L76.5086 154.987C78.6758 156.425 83.1191 157.828 89.1222 158.167L89.0659 159.165L89.0096 160.164C82.8312 159.815 77.986 158.368 75.4025 156.653L75.9555 155.82ZM89.0659 159.165L89.1222 158.167C94.8995 158.493 102.106 157.832 110.087 155.282L110.391 156.235L110.695 157.187C102.479 159.812 95.0276 160.503 89.0096 160.164L89.0659 159.165ZM110.391 156.235L111.391 156.207C111.403 156.639 111.419 157.188 111.442 157.839L110.443 157.875L109.443 157.912C109.42 157.252 109.404 156.696 109.391 156.263L110.391 156.235ZM110.443 157.875L111.442 157.839C111.505 159.559 111.612 162 111.794 164.88L110.796 164.943L109.798 165.006C109.615 162.105 109.506 159.646 109.443 157.912L110.443 157.875ZM110.796 164.943L111.794 164.88C112.158 170.641 112.819 178.159 114.002 185.193L113.016 185.359L112.03 185.525C110.83 178.395 110.164 170.8 109.798 165.006L110.796 164.943ZM113.016 185.359L114.002 185.193C115.157 192.053 116.805 198.425 119.147 202.263L118.293 202.784L117.44 203.305C114.88 199.109 113.186 192.396 112.03 185.525L113.016 185.359ZM118.293 202.784L119.147 202.263C126.34 214.051 131.494 217.439 135.932 221.125L135.293 221.894L134.655 222.663C130.209 218.972 124.822 215.402 117.44 203.305L118.293 202.784ZM135.293 221.894L135.932 221.125C160.372 241.418 198.505 245.945 231.865 226.257L232.373 227.119L232.882 227.98C198.817 248.083 159.764 243.513 134.655 222.663L135.293 221.894ZM232.373 227.119L231.865 226.257C235.322 224.218 238.727 221.917 242.061 219.348L242.671 220.14L243.282 220.932C239.884 223.551 236.41 225.898 232.882 227.98L232.373 227.119ZM242.671 220.14L242.061 219.348C246.545 215.892 254.639 207.347 260.109 195.54L261.016 195.96L261.923 196.381C256.312 208.494 248.008 217.289 243.282 220.932L242.671 220.14ZM261.016 195.96L260.109 195.54C265.416 184.085 268.248 169.57 262.939 153.656L263.887 153.339L264.836 153.023C270.344 169.534 267.389 184.584 261.923 196.381L261.016 195.96ZM263.887 153.339L264.111 152.365C267.797 153.211 271.063 152.387 273.903 150.494L274.457 151.326L275.012 152.158C271.771 154.319 267.947 155.298 263.663 154.314L263.887 153.339ZM274.457 151.326L273.903 150.494C277.103 148.36 279.751 144.877 281.822 140.949L282.707 141.415L283.591 141.882C281.439 145.964 278.597 149.767 275.012 152.158L274.457 151.326ZM282.707 141.415L281.822 140.949C283.892 137.024 285.376 132.667 286.256 128.805L287.231 129.027L288.206 129.249C287.294 133.254 285.754 137.779 283.591 141.882L282.707 141.415ZM287.231 129.027L286.256 128.805C287.137 124.936 287.405 121.586 287.06 119.665L288.044 119.489L289.029 119.312C289.446 121.638 289.103 125.309 288.206 129.249L287.231 129.027ZM288.044 119.489L287.06 119.665C286.36 115.766 284.869 110.792 280.433 106.789L281.103 106.046L281.773 105.304C286.686 109.738 288.295 115.225 289.029 119.312L288.044 119.489ZM281.103 106.046L280.433 106.789C277.001 103.692 271.796 101.167 263.794 100.178L263.916 99.186L264.039 98.1935C272.354 99.2207 277.972 101.875 281.773 105.304L281.103 106.046ZM263.916 99.186L263.708 98.2079C270.318 96.7994 277.495 94.2494 283.772 90.6892L284.265 91.559L284.758 92.4288C278.284 96.1014 270.911 98.7181 264.125 100.164L263.916 99.186ZM284.265 91.559L283.772 90.6892C292.642 85.6576 299.69 78.6279 300.88 69.9697L301.871 70.1059L302.861 70.2421C301.544 79.8291 293.821 87.2882 284.758 92.4288L284.265 91.559ZM301.871 70.1059L300.881 69.9645L300.885 69.9371L301.874 70.0786L302.864 70.22L302.861 70.2473L301.871 70.1059ZM301.874 70.0786L300.877 70.0073L300.879 69.98L301.876 70.0512L302.874 70.1225L302.872 70.1498L301.874 70.0786ZM301.876 70.0512L300.879 69.9826C301.136 66.2466 301.185 62.0355 300.939 57.5966L301.938 57.5414L302.936 57.4863C303.186 62.0072 303.137 66.301 302.874 70.1199L301.876 70.0512ZM301.938 57.5414L300.939 57.5966C300.204 44.2785 296.822 28.9388 288.505 18.1976L289.295 17.5854L290.086 16.9731C298.766 28.1818 302.192 44 302.936 57.4863L301.938 57.5414ZM289.295 17.5854L288.505 18.1976C284.349 12.8305 278.961 8.61256 272.053 6.36442L272.363 5.41351L272.672 4.4626C280.014 6.85206 285.721 11.3357 290.086 16.9731L289.295 17.5854ZM272.363 5.41351L272.053 6.36442C265.145 4.11602 256.701 3.83339 246.427 6.35921L246.188 5.38812L245.949 4.41703C256.506 1.8219 265.338 2.07569 272.672 4.4626L272.363 5.41351ZM246.188 5.38812L246.421 6.3607L246.376 6.37144L246.143 5.39886L245.91 4.42628L245.955 4.41554L246.188 5.38812ZM246.143 5.39886L246.496 6.33433L246.452 6.35094L246.099 5.41546L245.746 4.47999L245.79 4.46339L246.143 5.39886ZM246.099 5.41546L246.447 6.35287C240.864 8.42699 231.706 13.1623 225.353 19.8429L224.628 19.1537L223.904 18.4646C230.537 11.4895 239.996 6.61581 245.751 4.47806L246.099 5.41546ZM224.628 19.1537L223.647 19.3476C222.976 15.9527 221.309 11.6134 218.327 8.01008L219.097 7.3725L219.868 6.73491C223.102 10.6427 224.887 15.3063 225.609 18.9598L224.628 19.1537Z" fill="#3E1D08" mask="url(#path-1-inside-1_50_4792)"/>
<path fill-rule="evenodd" clip-rule="evenodd" d="M42.5632 127.269C48.2713 125.578 53.9235 137.421 57.0862 145.962C59.8199 153.345 78.4823 168.444 96.6364 171.208C101.661 171.973 106.609 174.574 108.009 179.46C109.745 185.52 110.527 191.461 112.171 197.542C113.285 201.662 111.913 205.156 107.645 205.223C99.7754 205.346 87.2422 203.994 82.1143 202.15C59.314 193.949 37.3047 173.559 36.0264 172.341C34.7498 171.125 28.6995 173.787 26.5982 170.765C24.3216 167.49 28.1317 164.707 27.8567 163.964C27.5818 163.222 23.889 164.588 22.4587 163.006C19.9709 160.254 25.4199 157.686 24.5224 157.174C23.619 156.664 4.01266 159.033 4.35142 154.087C5.21197 141.522 40.3353 142.871 41.0627 142.605C41.7846 142.338 37.997 128.622 42.5632 127.269Z" fill="#FFC044"/>
<path d="M42.5632 127.269L42.4149 126.768L42.4149 126.768L42.5632 127.269ZM57.0862 145.962L57.5759 145.781V145.781L57.0862 145.962ZM96.6364 171.208L96.715 170.692L96.715 170.692L96.6364 171.208ZM108.009 179.46L108.511 179.316V179.316L108.009 179.46ZM112.171 197.542L111.667 197.678L111.667 197.678L112.171 197.542ZM107.645 205.223L107.653 205.745V205.745L107.645 205.223ZM82.1143 202.15L81.9376 202.641L81.9376 202.641L82.1143 202.15ZM36.0264 172.341L35.6661 172.719L35.6661 172.719L36.0264 172.341ZM26.5982 170.765L26.1694 171.063L26.1694 171.063L26.5982 170.765ZM27.8567 163.964L28.3464 163.783L28.3464 163.783L27.8567 163.964ZM22.4587 163.006L22.0714 163.356L22.0714 163.356L22.4587 163.006ZM24.5224 157.174L24.7811 156.721L24.7794 156.72L24.5224 157.174ZM4.35142 154.087L3.83046 154.051L3.83046 154.051L4.35142 154.087ZM41.0627 142.605L41.2426 143.095L41.2439 143.094L41.0627 142.605ZM42.5632 127.269L42.7116 127.77C43.93 127.409 45.1858 127.749 46.4885 128.697C47.7977 129.65 49.0975 131.18 50.3435 133.066C52.8324 136.833 55.0197 141.885 56.5965 146.143L57.0862 145.962L57.5759 145.781C55.99 141.498 53.7699 136.358 51.2149 132.49C49.939 130.559 48.5579 128.912 47.1031 127.853C45.6417 126.789 44.0505 126.284 42.4149 126.768L42.5632 127.269ZM57.0862 145.962L56.5965 146.143C57.3179 148.092 59.0573 150.482 61.4911 152.996C63.9358 155.521 67.1191 158.208 70.7812 160.746C78.0994 165.818 87.3778 170.327 96.5578 171.724L96.6364 171.208L96.715 170.692C87.7408 169.326 78.611 164.902 71.3761 159.888C67.7616 157.383 64.6321 154.739 62.2414 152.27C59.8398 149.789 58.2213 147.524 57.5759 145.781L57.0862 145.962ZM96.6364 171.208L96.5578 171.724C101.502 172.477 106.19 175.01 107.507 179.604L108.009 179.46L108.511 179.316C107.027 174.139 101.82 171.469 96.715 170.692L96.6364 171.208ZM108.009 179.46L107.507 179.604C108.369 182.612 108.995 185.595 109.613 188.599C110.23 191.597 110.84 194.62 111.667 197.678L112.171 197.542L112.675 197.406C111.858 194.384 111.255 191.395 110.636 188.388C110.018 185.386 109.385 182.368 108.511 179.316L108.009 179.46ZM112.171 197.542L111.667 197.678C112.204 199.664 112.119 201.42 111.465 202.659C110.83 203.861 109.611 204.67 107.637 204.701L107.645 205.223L107.653 205.745C109.947 205.709 111.548 204.737 112.388 203.146C113.209 201.591 113.252 199.54 112.675 197.406L112.171 197.542ZM107.645 205.223L107.637 204.701C103.73 204.762 98.6533 204.457 93.9119 203.905C89.1586 203.353 84.7945 202.559 82.291 201.658L82.1143 202.15L81.9376 202.641C84.562 203.585 89.0285 204.389 93.7912 204.943C98.5657 205.498 103.69 205.807 107.653 205.745L107.645 205.223ZM82.1143 202.15L82.291 201.658C59.6033 193.498 37.6627 173.179 36.3866 171.963L36.0264 172.341L35.6661 172.719C36.9467 173.939 59.0247 194.4 81.9376 202.641L82.1143 202.15ZM36.0264 172.341L36.3866 171.963C36.1196 171.709 35.7677 171.591 35.4283 171.533C35.0839 171.475 34.6926 171.469 34.2892 171.485C33.8831 171.501 33.4394 171.541 32.9865 171.585C32.5291 171.629 32.0603 171.676 31.585 171.709C30.6298 171.776 29.6977 171.783 28.8906 171.605C28.0935 171.429 27.4554 171.083 27.0269 170.467L26.5982 170.765L26.1694 171.063C26.7916 171.957 27.6977 172.412 28.666 172.625C29.6242 172.836 30.6786 172.82 31.6581 172.751C32.1502 172.716 32.636 172.667 33.0861 172.624C33.5408 172.581 33.9577 172.543 34.3311 172.528C34.7073 172.513 35.0146 172.522 35.2535 172.563C35.4975 172.604 35.614 172.669 35.6661 172.719L36.0264 172.341ZM26.5982 170.765L27.0269 170.467C26.522 169.74 26.3672 169.065 26.3947 168.448C26.4228 167.82 26.6419 167.22 26.9384 166.659C27.2377 166.093 27.5927 165.607 27.8879 165.173C28.0284 164.966 28.1668 164.754 28.2593 164.56C28.3365 164.399 28.462 164.095 28.3464 163.783L27.8567 163.964L27.3671 164.145C27.3202 164.019 27.3868 163.964 27.3171 164.11C27.2628 164.224 27.1664 164.376 27.024 164.586C26.7533 164.984 26.3495 165.539 26.0152 166.171C25.6782 166.808 25.3888 167.563 25.3514 168.402C25.3134 169.251 25.5361 170.152 26.1694 171.063L26.5982 170.765ZM27.8567 163.964L28.3464 163.783C28.2269 163.46 27.9429 163.328 27.7466 163.272C27.5458 163.215 27.3152 163.202 27.0998 163.202C26.6807 163.2 26.0899 163.255 25.5676 163.278C25.01 163.303 24.4553 163.3 23.9654 163.206C23.4767 163.112 23.1 162.937 22.8461 162.656L22.4587 163.006L22.0714 163.356C22.5326 163.866 23.1539 164.114 23.7684 164.232C24.3818 164.349 25.0356 164.348 25.6144 164.322C26.2285 164.294 26.7018 164.245 27.0971 164.246C27.289 164.246 27.4031 164.26 27.4624 164.277C27.5264 164.295 27.4178 164.283 27.3671 164.146L27.8567 163.964ZM22.4587 163.006L22.8461 162.656C22.3327 162.088 22.2601 161.584 22.3666 161.124C22.4833 160.619 22.8306 160.105 23.2834 159.598C23.7544 159.072 24.2051 158.688 24.6032 158.279C24.7724 158.104 24.9623 157.894 25.0624 157.68C25.1146 157.569 25.1738 157.391 25.1308 157.187C25.0829 156.959 24.9329 156.807 24.7811 156.721L24.5224 157.174L24.2637 157.628C24.2241 157.605 24.1367 157.534 24.1087 157.401C24.0858 157.292 24.1223 157.225 24.1163 157.238C24.1 157.273 24.0308 157.369 23.8543 157.551C23.5608 157.853 22.973 158.379 22.505 158.902C22.0187 159.446 21.5263 160.121 21.3491 160.888C21.1617 161.699 21.3408 162.548 22.0714 163.356L22.4587 163.006ZM24.5224 157.174L24.7794 156.72C24.667 156.656 24.5437 156.632 24.4703 156.62C24.3816 156.605 24.281 156.595 24.1754 156.589C23.9634 156.576 23.6918 156.573 23.3771 156.576C22.7464 156.582 21.8994 156.614 20.9225 156.65C18.961 156.723 16.45 156.816 13.9805 156.772C11.5018 156.727 9.10774 156.544 7.36778 156.08C6.49475 155.847 5.83498 155.555 5.41259 155.213C5.00961 154.886 4.84404 154.536 4.87239 154.122L4.35142 154.087L3.83046 154.051C3.77411 154.874 4.14714 155.532 4.75507 156.024C5.34358 156.501 6.16704 156.84 7.09858 157.089C8.96775 157.587 11.4682 157.771 13.9617 157.816C16.4643 157.861 19.0032 157.767 20.9613 157.694C21.9443 157.657 22.7745 157.626 23.3876 157.62C23.6949 157.617 23.9369 157.62 24.1111 157.631C24.1987 157.637 24.2593 157.643 24.2978 157.65C24.3516 157.659 24.3213 157.661 24.2653 157.629L24.5224 157.174ZM4.35142 154.087L4.87239 154.122C5.06815 151.264 7.20992 149.116 10.5743 147.5C13.9272 145.89 18.3583 144.882 22.8299 144.251C27.2932 143.621 31.7578 143.373 35.1572 143.266C36.8561 143.213 38.2869 143.195 39.3184 143.181C39.8327 143.175 40.252 143.169 40.5538 143.162C40.7042 143.158 40.8315 143.153 40.9294 143.147C40.978 143.143 41.0254 143.14 41.0676 143.134C41.0957 143.131 41.1691 143.122 41.2426 143.095L41.0627 142.605L40.8829 142.114C40.9336 142.096 40.9676 142.094 40.9398 142.098C40.9263 142.099 40.9015 142.102 40.8623 142.104C40.7846 142.109 40.6733 142.114 40.5263 142.118C40.2333 142.125 39.8225 142.131 39.3051 142.137C38.2732 142.15 36.8339 142.169 35.1243 142.222C31.7066 142.33 27.2001 142.58 22.6841 143.217C18.1764 143.853 13.6198 144.879 10.1223 146.559C6.63632 148.232 4.06497 150.627 3.83046 154.051L4.35142 154.087ZM41.0627 142.605L41.2439 143.094C41.4638 143.013 41.561 142.834 41.5994 142.742C41.641 142.643 41.6583 142.541 41.6673 142.462C41.6856 142.299 41.6816 142.1 41.6683 141.891C41.6414 141.467 41.5678 140.885 41.4771 140.216C41.2937 138.863 41.0334 137.1 40.8919 135.303C40.7499 133.5 40.7322 131.709 41.0158 130.302C41.304 128.872 41.8604 128.022 42.7116 127.77L42.5632 127.269L42.4149 126.768C40.9829 127.193 40.3005 128.565 39.992 130.095C39.679 131.649 39.7069 133.557 39.8508 135.385C39.9952 137.219 40.261 139.02 40.4422 140.356C40.5337 141.032 40.6019 141.576 40.6261 141.958C40.6384 142.152 40.6372 142.276 40.6295 142.345C40.6254 142.381 40.6225 142.371 40.6358 142.34C40.6459 142.315 40.7068 142.18 40.8815 142.115L41.0627 142.605Z" fill="#3E1D08"/>
<path d="M121.153 287.612H170.973C172.561 287.612 173.857 286.345 173.887 284.757C174.018 277.763 174.443 259.326 175.465 245.336C175.589 243.64 174.252 242.188 172.551 242.188H136.468C134.864 242.188 133.563 243.489 133.563 245.093V261.337L116.612 273.026C110.149 277.483 113.303 287.612 121.153 287.612Z" fill="#F06520" stroke="#3E1D08" stroke-width="0.968445" stroke-linecap="round"/>
<path d="M188.347 287.612H236.394C239.069 287.612 241.237 285.444 241.237 282.77V247.03C241.237 244.356 239.069 242.188 236.394 242.188H206.444C203.77 242.188 201.602 244.356 201.602 247.03V260.892L183.84 273.002C177.336 277.437 180.474 287.612 188.347 287.612Z" fill="#F06520" stroke="#3E1D08" stroke-width="0.968445" stroke-linecap="round"/>
<circle cx="130.72" cy="134.937" r="15.2418" fill="#F06520"/>
<path d="M157.394 114.616L144.321 127.318C144.907 128.558 145.591 129.778 146.386 130.944L162.898 114.616H157.394Z" fill="#FCFDED"/>
<path d="M168.826 114.616L148.927 134.047C150.856 136.008 153.228 137.649 156.124 138.728L180.257 114.616H168.826Z" fill="#FCFDED"/>
<path fill-rule="evenodd" clip-rule="evenodd" d="M184.491 123.931C183.785 129.858 178.309 141.374 162.051 140.019C159.867 139.837 157.897 139.388 156.124 138.728L180.257 114.616H214.128L196.345 131.745C194.53 128.994 193.639 126.091 193.382 123.931H184.491ZM199.733 135.591C200.723 136.436 201.848 137.207 203.12 137.864L226.829 114.616H220.478L199.733 135.591ZM223.865 127.333L236.567 114.616C236.426 122.519 232.079 138.664 215.821 140.019C214.158 140.158 212.608 140.162 211.164 140.051L223.865 127.333ZM168.826 114.616L148.927 134.047C147.976 133.08 147.132 132.036 146.386 130.944L162.898 114.616H168.826ZM144.321 127.318L157.394 114.616H141.306C141.365 117.957 142.177 122.771 144.321 127.318Z" fill="#3E1D08"/>
<path d="M214.128 114.616L196.345 131.745C197.239 133.099 198.356 134.417 199.733 135.591L220.478 114.616H214.128Z" fill="#FCFDED"/>
<path d="M236.567 114.616H226.829L203.12 137.864C205.333 139.008 207.992 139.807 211.164 140.051L223.865 127.333L236.567 114.616Z" fill="#FCFDED"/>
<path d="M226.829 114.616H236.567C236.426 122.519 232.079 138.664 215.821 140.019C214.158 140.158 212.608 140.162 211.164 140.051C207.992 139.807 205.333 139.008 203.12 137.864M236.567 114.616L223.865 127.333L211.164 140.051M146.386 130.944C145.591 129.778 144.907 128.558 144.321 127.318C142.177 122.771 141.365 117.957 141.306 114.616H157.394M144.321 127.318L157.394 114.616M157.394 114.616H162.898M162.898 114.616L146.386 130.944M162.898 114.616H168.826M156.124 138.728C153.228 137.649 150.856 136.008 148.927 134.047C147.976 133.08 147.132 132.036 146.386 130.944M148.927 134.047L168.826 114.616M168.826 114.616H180.257M180.257 114.616L156.124 138.728M180.257 114.616H214.128M203.12 137.864C201.848 137.207 200.723 136.436 199.733 135.591C198.356 134.417 197.239 133.099 196.345 131.745C194.53 128.994 193.639 126.091 193.382 123.931H184.491C183.785 129.858 178.309 141.374 162.051 140.019C159.867 139.837 157.897 139.388 156.124 138.728M196.345 131.745L214.128 114.616M214.128 114.616H220.478M220.478 114.616L199.733 135.591M220.478 114.616H226.829M203.12 137.864L226.829 114.616" stroke="#3E1D08" stroke-width="1.31172" stroke-linecap="round"/>
<circle cx="240.795" cy="134.937" r="15.2418" fill="#F06520"/>
<path d="M139.611 139.718C154.853 149.942 203.966 169.656 243.764 133.245" stroke="#3E1D08" stroke-width="9.18201" stroke-linecap="round"/>
</svg>
