<svg width="324" height="69" viewBox="0 0 324 69" fill="none" xmlns="http://www.w3.org/2000/svg">
<path d="M48.3289 65.0662C15.1289 69.8662 2.82886 49.7329 0.828859 39.0662C-1.89059 24.5664 12.9955 24.3996 18.3289 26.5664C9.52886 9.36641 21.9955 3.39974 29.3289 2.56641C39.7289 1.76641 43.9955 10.2331 44.8289 14.5664C43.6289 2.16642 52.6622 0.0664175 57.3289 0.566418C71.3289 1.76642 69.8281 14.5664 67.3288 20.0662C76.1289 11.6662 85.1066 19.0664 85.8288 25.5664C87.1622 37.5664 81.5289 60.2662 48.3289 65.0662Z" fill="#FFC044" stroke="#3E1D08" stroke-linejoin="round"/>
<path d="M38.8281 24.5664C40.2603 24.5664 41.6978 25.8687 42.6855 28.2578C43.3963 29.9772 43.8281 32.1686 43.8281 34.5664C43.8281 37.4017 43.2251 39.9437 42.2744 41.7588C41.3113 43.5976 40.0677 44.5664 38.8281 44.5664C37.5886 44.5664 36.345 43.5976 35.3818 41.7588C34.4311 39.9437 33.8281 37.4017 33.8281 34.5664C33.8281 31.7311 34.4311 29.1891 35.3818 27.374C36.345 25.5353 37.5886 24.5664 38.8281 24.5664Z" fill="#FCFDED" stroke="#3E1D08"/>
<path d="M40.8281 27.5664C41.2186 27.5664 41.626 27.7468 42.0283 28.1455C42.4329 28.5465 42.8088 29.148 43.1123 29.917C43.5564 31.0424 43.8281 32.484 43.8281 34.0664C43.8281 35.9386 43.4473 37.6093 42.8555 38.793C42.2487 40.0062 41.5031 40.5664 40.8281 40.5664C40.1531 40.5664 39.4075 40.0062 38.8008 38.793C38.2089 37.6093 37.8281 35.9386 37.8281 34.0664C37.8281 32.1942 38.2089 30.5235 38.8008 29.3398C39.4075 28.1266 40.1531 27.5664 40.8281 27.5664Z" fill="#3E1D08" stroke="#3E1D08"/>
<path d="M51.8281 24.5664C53.2603 24.5664 54.6978 25.8687 55.6855 28.2578C56.3963 29.9772 56.8281 32.1686 56.8281 34.5664C56.8281 37.4017 56.2251 39.9437 55.2744 41.7588C54.3113 43.5976 53.0677 44.5664 51.8281 44.5664C50.5886 44.5664 49.345 43.5976 48.3818 41.7588C47.4311 39.9437 46.8281 37.4017 46.8281 34.5664C46.8281 31.7311 47.4311 29.1891 48.3818 27.374C49.345 25.5353 50.5886 24.5664 51.8281 24.5664Z" fill="#FCFDED" stroke="#3E1D08"/>
<path d="M53.8281 27.5664C54.2186 27.5664 54.626 27.7468 55.0283 28.1455C55.4329 28.5465 55.8088 29.148 56.1123 29.917C56.5564 31.0424 56.8281 32.484 56.8281 34.0664C56.8281 35.9386 56.4473 37.6093 55.8555 38.793C55.2487 40.0062 54.5031 40.5664 53.8281 40.5664C53.1531 40.5664 52.4075 40.0062 51.8008 38.793C51.2089 37.6093 50.8281 35.9386 50.8281 34.0664C50.8281 32.1942 51.2089 30.5235 51.8008 29.3398C52.4075 28.1266 53.1531 27.5664 53.8281 27.5664Z" fill="#3E1D08" stroke="#3E1D08"/>
<path d="M40.8281 49.5664C42.8281 50.7331 47.1281 52.0664 48.3281 48.0664" stroke="#3E1D08" stroke-linecap="round"/>
<path d="M125.9 4.7V31.5H118.7V11.1H105.5V31.5H98.3V4.7H125.9ZM129.903 17.06C129.903 15.2467 130.13 13.54 130.583 11.94C131.036 10.34 131.823 8.95333 132.943 7.78C134.09 6.58 135.623 5.63333 137.543 4.94C139.463 4.24666 141.876 3.9 144.783 3.9H146.223C149.13 3.9 151.543 4.24666 153.463 4.94C155.383 5.63333 156.903 6.58 158.023 7.78C159.17 8.95333 159.97 10.34 160.423 11.94C160.876 13.54 161.103 15.2467 161.103 17.06V19.14C161.103 20.9533 160.876 22.66 160.423 24.26C159.97 25.86 159.17 27.26 158.023 28.46C156.903 29.6333 155.383 30.5667 153.463 31.26C151.543 31.9533 149.13 32.3 146.223 32.3H144.783C141.876 32.3 139.463 31.9533 137.543 31.26C135.623 30.5667 134.09 29.6333 132.943 28.46C131.823 27.26 131.036 25.86 130.583 24.26C130.13 22.66 129.903 20.9533 129.903 19.14V17.06ZM137.103 18.1C137.103 19.1133 137.143 20.1 137.223 21.06C137.33 21.9933 137.636 22.82 138.143 23.54C138.676 24.26 139.503 24.8333 140.623 25.26C141.77 25.6867 143.396 25.9 145.503 25.9C147.61 25.9 149.223 25.6867 150.343 25.26C151.49 24.8333 152.316 24.26 152.823 23.54C153.356 22.82 153.663 21.9933 153.743 21.06C153.85 20.1 153.903 19.1133 153.903 18.1C153.903 17.0867 153.85 16.1133 153.743 15.18C153.663 14.2467 153.356 13.42 152.823 12.7C152.316 11.98 151.49 11.4067 150.343 10.98C149.223 10.5533 147.61 10.34 145.503 10.34C143.396 10.34 141.77 10.5533 140.623 10.98C139.503 11.4067 138.676 11.98 138.143 12.7C137.636 13.42 137.33 14.2467 137.223 15.18C137.143 16.1133 137.103 17.0867 137.103 18.1ZM192.719 4.7V31.5H185.519V11.1H172.319V31.5H165.119V4.7H192.719ZM204.322 4.7V15.1H208.922L217.642 4.7H224.682V6.3L214.802 18.1L224.682 29.9V31.5H217.642L209.242 21.5H204.322V31.5H197.122V4.7H204.322ZM225.717 17.06C225.717 15.2467 225.944 13.54 226.397 11.94C226.851 10.34 227.637 8.95333 228.757 7.78C229.904 6.58 231.437 5.63333 233.357 4.94C235.277 4.24666 237.691 3.9 240.597 3.9H242.037C244.944 3.9 247.357 4.24666 249.277 4.94C251.197 5.63333 252.717 6.58 253.837 7.78C254.984 8.95333 255.784 10.34 256.237 11.94C256.691 13.54 256.917 15.2467 256.917 17.06V19.14C256.917 20.9533 256.691 22.66 256.237 24.26C255.784 25.86 254.984 27.26 253.837 28.46C252.717 29.6333 251.197 30.5667 249.277 31.26C247.357 31.9533 244.944 32.3 242.037 32.3H240.597C237.691 32.3 235.277 31.9533 233.357 31.26C231.437 30.5667 229.904 29.6333 228.757 28.46C227.637 27.26 226.851 25.86 226.397 24.26C225.944 22.66 225.717 20.9533 225.717 19.14V17.06ZM232.917 18.1C232.917 19.1133 232.957 20.1 233.037 21.06C233.144 21.9933 233.451 22.82 233.957 23.54C234.491 24.26 235.317 24.8333 236.437 25.26C237.584 25.6867 239.211 25.9 241.317 25.9C243.424 25.9 245.037 25.6867 246.157 25.26C247.304 24.8333 248.131 24.26 248.637 23.54C249.171 22.82 249.477 21.9933 249.557 21.06C249.664 20.1 249.717 19.1133 249.717 18.1C249.717 17.0867 249.664 16.1133 249.557 15.18C249.477 14.2467 249.171 13.42 248.637 12.7C248.131 11.98 247.304 11.4067 246.157 10.98C245.037 10.5533 243.424 10.34 241.317 10.34C239.211 10.34 237.584 10.5533 236.437 10.98C235.317 11.4067 234.491 11.98 233.957 12.7C233.451 13.42 233.144 14.2467 233.037 15.18C232.957 16.1133 232.917 17.0867 232.917 18.1ZM288.133 15.1C288.133 16.4333 287.959 17.6867 287.613 18.86C287.293 20.0067 286.733 21.02 285.933 21.9C285.133 22.7533 284.039 23.4333 282.653 23.94C281.293 24.4467 279.573 24.7 277.493 24.7H276.373C274.933 24.7 273.519 24.6867 272.133 24.66C270.773 24.6333 269.439 24.5133 268.133 24.3V31.5H260.933V4.7C263.226 4.43333 265.626 4.23333 268.133 4.1C270.666 3.96666 273.146 3.9 275.573 3.9H276.693C278.933 3.9 280.786 4.15333 282.253 4.66C283.719 5.16667 284.893 5.86 285.773 6.74C286.653 7.59333 287.266 8.60667 287.613 9.78C287.959 10.9533 288.133 12.1933 288.133 13.5V15.1ZM275.253 18.3C276.666 18.3 277.759 18.2067 278.533 18.02C279.306 17.8067 279.866 17.5267 280.213 17.18C280.586 16.8067 280.799 16.38 280.853 15.9C280.906 15.42 280.933 14.8867 280.933 14.3C280.933 13.7133 280.906 13.18 280.853 12.7C280.799 12.1933 280.599 11.7667 280.253 11.42C279.906 11.0733 279.373 10.8067 278.653 10.62C277.933 10.4067 276.893 10.3 275.533 10.3C274.679 10.3 273.559 10.3267 272.173 10.38C270.813 10.4333 269.466 10.5267 268.133 10.66V17.94C269.386 18.1 270.573 18.2067 271.693 18.26C272.813 18.2867 273.999 18.3 275.253 18.3ZM298.925 4.7V15.1H312.925V4.7H320.125V31.5H312.925V21.5H298.925V31.5H291.725V4.7H298.925Z" fill="#FFC044"/>
<path d="M97.772 61.5V45.34H105.996C107.895 45.34 109.388 45.6867 110.476 46.38C111.564 47.0627 112.108 48.1027 112.108 49.5C112.108 50.2253 111.921 50.8493 111.548 51.372C111.185 51.884 110.689 52.3 110.06 52.62C109.441 52.94 108.737 53.164 107.948 53.292L107.884 52.252C109.409 52.412 110.609 52.876 111.484 53.644C112.359 54.4013 112.796 55.388 112.796 56.604C112.796 57.6173 112.54 58.492 112.028 59.228C111.516 59.9533 110.769 60.5133 109.788 60.908C108.807 61.3027 107.617 61.5 106.22 61.5H97.772ZM102.236 58.268H105.612C106.455 58.268 107.1 58.124 107.548 57.836C108.007 57.5373 108.236 57.1053 108.236 56.54C108.236 55.996 108.012 55.58 107.564 55.292C107.127 55.004 106.476 54.86 105.612 54.86H101.772V51.788H105.212C106.012 51.788 106.631 51.6653 107.068 51.42C107.505 51.164 107.724 50.7587 107.724 50.204C107.724 49.6493 107.5 49.2387 107.052 48.972C106.615 48.6947 106.001 48.556 105.212 48.556H102.236V58.268ZM122.014 61.916C121.107 61.916 120.222 61.8467 119.358 61.708C118.494 61.5693 117.678 61.3507 116.91 61.052C116.152 60.7533 115.475 60.3533 114.878 59.852L116.734 56.86C117.374 57.4253 118.142 57.836 119.038 58.092C119.934 58.348 120.862 58.476 121.822 58.476C122.952 58.476 123.832 58.3213 124.462 58.012C125.102 57.7027 125.422 57.1907 125.422 56.476C125.422 55.8573 125.102 55.4253 124.462 55.18C123.832 54.9347 122.888 54.812 121.63 54.812H118.67V51.5H121.502C122.632 51.5 123.475 51.3773 124.03 51.132C124.584 50.8867 124.862 50.4813 124.862 49.916C124.862 49.5533 124.734 49.26 124.478 49.036C124.222 48.8013 123.854 48.6253 123.374 48.508C122.894 48.3907 122.328 48.332 121.678 48.332C120.782 48.332 119.918 48.4653 119.086 48.732C118.254 48.9987 117.539 49.404 116.942 49.948L115.326 46.908C116.222 46.1933 117.272 45.66 118.478 45.308C119.694 44.956 120.899 44.78 122.094 44.78C123.544 44.78 124.787 44.956 125.822 45.308C126.867 45.66 127.662 46.1667 128.206 46.828C128.76 47.4893 129.038 48.2893 129.038 49.228C129.038 49.996 128.798 50.6893 128.318 51.308C127.838 51.916 127.134 52.348 126.206 52.604C127.358 52.9027 128.227 53.3827 128.814 54.044C129.411 54.7053 129.71 55.548 129.71 56.572C129.71 57.6493 129.4 58.5933 128.782 59.404C128.163 60.204 127.278 60.8227 126.126 61.26C124.974 61.6973 123.603 61.916 122.014 61.916ZM133.272 68.22V45.34H137.336V47.324C137.955 46.588 138.739 45.996 139.688 45.548C140.648 45.0893 141.784 44.86 143.096 44.86C144.653 44.86 146.04 45.2227 147.256 45.948C148.472 46.6627 149.427 47.6653 150.12 48.956C150.813 50.2467 151.16 51.7347 151.16 53.42C151.16 54.6253 150.957 55.7453 150.552 56.78C150.157 57.8147 149.597 58.7213 148.872 59.5C148.147 60.2787 147.288 60.8867 146.296 61.324C145.304 61.7613 144.211 61.98 143.016 61.98C141.96 61.98 141.005 61.804 140.152 61.452C139.309 61.1 138.568 60.604 137.928 59.964V68.22H133.272ZM142.232 57.932C143.064 57.932 143.805 57.7507 144.456 57.388C145.117 57.0147 145.629 56.492 145.992 55.82C146.365 55.148 146.552 54.348 146.552 53.42C146.552 52.492 146.365 51.692 145.992 51.02C145.619 50.348 145.107 49.8307 144.456 49.468C143.805 49.0947 143.064 48.908 142.232 48.908C141.411 48.908 140.675 49.0947 140.024 49.468C139.373 49.8307 138.861 50.348 138.488 51.02C138.115 51.692 137.928 52.492 137.928 53.42C137.928 54.348 138.109 55.148 138.472 55.82C138.845 56.492 139.357 57.0147 140.008 57.388C140.659 57.7507 141.4 57.932 142.232 57.932ZM154.366 61.5V45.34H159.038V58.156H161.326C162.264 58.156 162.979 57.9587 163.47 57.564C163.96 57.1693 164.206 56.604 164.206 55.868C164.206 55.132 163.976 54.5613 163.518 54.156C163.07 53.74 162.43 53.532 161.598 53.532H158.526V50.22H161.966C164.152 50.22 165.87 50.6947 167.118 51.644C168.376 52.5933 169.006 54.0013 169.006 55.868C169.006 57.0413 168.712 58.0493 168.126 58.892C167.539 59.724 166.707 60.3693 165.63 60.828C164.563 61.276 163.304 61.5 161.854 61.5H154.366ZM171.294 61.5V45.34H175.966V61.5H171.294ZM180.522 61.5V45.34H188.746C190.645 45.34 192.138 45.6867 193.226 46.38C194.314 47.0627 194.858 48.1027 194.858 49.5C194.858 50.2253 194.671 50.8493 194.298 51.372C193.935 51.884 193.439 52.3 192.81 52.62C192.191 52.94 191.487 53.164 190.698 53.292L190.634 52.252C192.159 52.412 193.359 52.876 194.234 53.644C195.109 54.4013 195.546 55.388 195.546 56.604C195.546 57.6173 195.29 58.492 194.778 59.228C194.266 59.9533 193.519 60.5133 192.538 60.908C191.557 61.3027 190.367 61.5 188.97 61.5H180.522ZM184.986 58.268H188.362C189.205 58.268 189.85 58.124 190.298 57.836C190.757 57.5373 190.986 57.1053 190.986 56.54C190.986 55.996 190.762 55.58 190.314 55.292C189.877 55.004 189.226 54.86 188.362 54.86H184.522V51.788H187.962C188.762 51.788 189.381 51.6653 189.818 51.42C190.255 51.164 190.474 50.7587 190.474 50.204C190.474 49.6493 190.25 49.2387 189.802 48.972C189.365 48.6947 188.751 48.556 187.962 48.556H184.986V58.268ZM212.295 61.916C211.388 61.916 210.503 61.8467 209.639 61.708C208.775 61.5693 207.959 61.3507 207.191 61.052C206.434 60.7533 205.756 60.3533 205.159 59.852L207.015 56.86C207.655 57.4253 208.423 57.836 209.319 58.092C210.215 58.348 211.143 58.476 212.103 58.476C213.234 58.476 214.114 58.3213 214.743 58.012C215.383 57.7027 215.703 57.1907 215.703 56.476C215.703 55.8573 215.383 55.4253 214.743 55.18C214.114 54.9347 213.17 54.812 211.911 54.812H208.951V51.5H211.783C212.914 51.5 213.756 51.3773 214.311 51.132C214.866 50.8867 215.143 50.4813 215.143 49.916C215.143 49.5533 215.015 49.26 214.759 49.036C214.503 48.8013 214.135 48.6253 213.655 48.508C213.175 48.3907 212.61 48.332 211.959 48.332C211.063 48.332 210.199 48.4653 209.367 48.732C208.535 48.9987 207.82 49.404 207.223 49.948L205.607 46.908C206.503 46.1933 207.554 45.66 208.759 45.308C209.975 44.956 211.18 44.78 212.375 44.78C213.826 44.78 215.068 44.956 216.103 45.308C217.148 45.66 217.943 46.1667 218.487 46.828C219.042 47.4893 219.319 48.2893 219.319 49.228C219.319 49.996 219.079 50.6893 218.599 51.308C218.119 51.916 217.415 52.348 216.487 52.604C217.639 52.9027 218.508 53.3827 219.095 54.044C219.692 54.7053 219.991 55.548 219.991 56.572C219.991 57.6493 219.682 58.5933 219.063 59.404C218.444 60.204 217.559 60.8227 216.407 61.26C215.255 61.6973 213.884 61.916 212.295 61.916ZM223.553 61.5V45.34H228.225V51.292H235.041V45.34H239.713V61.5H235.041V55.036H228.225V61.5H223.553ZM248.784 61.98C247.696 61.98 246.725 61.772 245.872 61.356C245.019 60.94 244.347 60.348 243.856 59.58C243.365 58.8013 243.12 57.8733 243.12 56.796C243.12 55.8787 243.349 55.0627 243.808 54.348C244.267 53.6333 244.96 53.0467 245.888 52.588C246.827 52.1187 248.011 51.804 249.44 51.644C250.88 51.4733 252.576 51.484 254.528 51.676L254.576 54.652C253.413 54.46 252.384 54.3693 251.488 54.38C250.603 54.3907 249.856 54.4813 249.248 54.652C248.651 54.8227 248.197 55.0733 247.888 55.404C247.579 55.724 247.424 56.1133 247.424 56.572C247.424 57.2013 247.659 57.6867 248.128 58.028C248.597 58.3587 249.232 58.524 250.032 58.524C250.725 58.524 251.349 58.4013 251.904 58.156C252.459 57.9107 252.901 57.5533 253.232 57.084C253.563 56.6147 253.728 56.044 253.728 55.372V51.5C253.728 50.8707 253.595 50.3213 253.328 49.852C253.072 49.372 252.667 49.004 252.112 48.748C251.557 48.4813 250.832 48.348 249.936 48.348C249.104 48.348 248.272 48.476 247.44 48.732C246.619 48.9773 245.867 49.356 245.184 49.868L243.952 46.604C244.987 45.9427 246.085 45.4627 247.248 45.164C248.411 44.8547 249.547 44.7 250.656 44.7C252.171 44.7 253.493 44.94 254.624 45.42C255.755 45.9 256.629 46.6413 257.248 47.644C257.877 48.636 258.192 49.9 258.192 51.436V61.5H254.128V59.724C253.595 60.4493 252.864 61.0093 251.936 61.404C251.008 61.788 249.957 61.98 248.784 61.98ZM262.522 61.5V45.34H267.194V51.292H274.01V45.34H278.682V61.5H274.01V55.036H267.194V61.5H262.522ZM283.241 61.5V45.34H287.705V54.876L295.273 45.34H299.433V61.5H294.953V51.836L287.369 61.5H283.241ZM303.991 61.5V45.34H308.455V54.876L316.023 45.34H320.183V61.5H315.703V51.836L308.119 61.5H303.991ZM312.071 42.94C310.791 42.94 309.671 42.6893 308.711 42.188C307.751 41.6867 307.004 40.9933 306.471 40.108C305.948 39.2227 305.703 38.1987 305.735 37.036H309.543C309.511 37.8893 309.724 38.5773 310.183 39.1C310.641 39.612 311.271 39.868 312.071 39.868C312.871 39.868 313.495 39.612 313.943 39.1C314.401 38.5773 314.609 37.8893 314.567 37.036H318.391C318.423 38.1773 318.172 39.196 317.639 40.092C317.105 40.9773 316.359 41.676 315.399 42.188C314.439 42.6893 313.329 42.94 312.071 42.94Z" fill="#FFC044"/>
</svg>
