<svg width="87" height="67" viewBox="0 0 87 67" fill="none" xmlns="http://www.w3.org/2000/svg">
<path d="M48.3289 65.0662C15.1289 69.8662 2.82886 49.7329 0.828859 39.0662C-1.89059 24.5664 12.9955 24.3996 18.3289 26.5664C9.52886 9.36641 21.9955 3.39974 29.3289 2.56641C39.7289 1.76641 43.9955 10.2331 44.8289 14.5664C43.6289 2.16642 52.6622 0.0664175 57.3289 0.566418C71.3289 1.76642 69.8281 14.5664 67.3288 20.0662C76.1289 11.6662 85.1066 19.0664 85.8288 25.5664C87.1622 37.5664 81.5289 60.2662 48.3289 65.0662Z" fill="#FFC044" stroke="#3E1D08" stroke-linejoin="round"/>
<path d="M38.8281 24.5664C40.2603 24.5664 41.6978 25.8687 42.6855 28.2578C43.3963 29.9772 43.8281 32.1686 43.8281 34.5664C43.8281 37.4017 43.2251 39.9437 42.2744 41.7588C41.3113 43.5976 40.0677 44.5664 38.8281 44.5664C37.5886 44.5664 36.345 43.5976 35.3818 41.7588C34.4311 39.9437 33.8281 37.4017 33.8281 34.5664C33.8281 31.7311 34.4311 29.1891 35.3818 27.374C36.345 25.5353 37.5886 24.5664 38.8281 24.5664Z" fill="#FCFDED" stroke="#3E1D08"/>
<path d="M40.8281 27.5664C41.2186 27.5664 41.626 27.7468 42.0283 28.1455C42.4329 28.5465 42.8088 29.148 43.1123 29.917C43.5564 31.0424 43.8281 32.484 43.8281 34.0664C43.8281 35.9386 43.4473 37.6093 42.8555 38.793C42.2487 40.0062 41.5031 40.5664 40.8281 40.5664C40.1531 40.5664 39.4075 40.0062 38.8008 38.793C38.2089 37.6093 37.8281 35.9386 37.8281 34.0664C37.8281 32.1942 38.2089 30.5235 38.8008 29.3398C39.4075 28.1266 40.1531 27.5664 40.8281 27.5664Z" fill="#3E1D08" stroke="#3E1D08"/>
<path d="M51.8281 24.5664C53.2603 24.5664 54.6978 25.8687 55.6855 28.2578C56.3963 29.9772 56.8281 32.1686 56.8281 34.5664C56.8281 37.4017 56.2251 39.9437 55.2744 41.7588C54.3113 43.5976 53.0677 44.5664 51.8281 44.5664C50.5886 44.5664 49.345 43.5976 48.3818 41.7588C47.4311 39.9437 46.8281 37.4017 46.8281 34.5664C46.8281 31.7311 47.4311 29.1891 48.3818 27.374C49.345 25.5353 50.5886 24.5664 51.8281 24.5664Z" fill="#FCFDED" stroke="#3E1D08"/>
<path d="M53.8281 27.5664C54.2186 27.5664 54.626 27.7468 55.0283 28.1455C55.4329 28.5465 55.8088 29.148 56.1123 29.917C56.5564 31.0424 56.8281 32.484 56.8281 34.0664C56.8281 35.9386 56.4473 37.6093 55.8555 38.793C55.2487 40.0062 54.5031 40.5664 53.8281 40.5664C53.1531 40.5664 52.4075 40.0062 51.8008 38.793C51.2089 37.6093 50.8281 35.9386 50.8281 34.0664C50.8281 32.1942 51.2089 30.5235 51.8008 29.3398C52.4075 28.1266 53.1531 27.5664 53.8281 27.5664Z" fill="#3E1D08" stroke="#3E1D08"/>
<path d="M40.8281 49.5664C42.8281 50.7331 47.1281 52.0664 48.3281 48.0664" stroke="#3E1D08" stroke-linecap="round"/>
</svg>
