<svg width="726" height="664" viewBox="0 0 726 664" fill="none" xmlns="http://www.w3.org/2000/svg">
<path d="M618.784 521.223C327.084 673.103 119.87 535.817 99.757 377.958C84.3497 257.034 281.143 223.455 459.906 159.838C663.659 87.3279 743.458 -4.16055 818.731 84.9937C893.464 195.498 974.47 336.027 618.784 521.223Z" fill="#331E07"/>
<path d="M397.136 595.949C377.05 499.251 426.277 282.734 771.423 251.519C802.604 342.668 771.399 539.164 397.136 595.949Z" fill="#F06520" stroke="#331E07"/>
<path d="M577.382 539.697C285.682 691.577 78.4679 554.292 58.3546 396.433C42.9473 275.509 239.741 241.929 418.504 178.312C622.257 105.802 702.056 14.3141 777.329 103.468C852.062 213.973 933.068 354.502 577.382 539.697Z" stroke="#F5E0AE" stroke-width="115"/>
</svg>
