<svg width="900" height="664" viewBox="0 0 900 664" fill="none" xmlns="http://www.w3.org/2000/svg">
<path d="M618.784 521.223C327.084 673.103 119.87 535.818 99.7571 377.959C84.3498 257.034 281.143 223.455 459.907 159.838C663.659 87.3281 743.458 -4.16031 818.731 84.9939C893.464 195.498 974.47 336.027 618.784 521.223Z" fill="#3E1D08"/>
<path d="M397.685 595.989C375.766 496.448 427.959 273.884 798.905 242.934C832.733 336.804 799.848 538.834 397.685 595.989Z" fill="#F06520" stroke="#3E1D08"/>
<path d="M577.382 539.698C285.682 691.577 78.468 554.292 58.3548 396.433C42.9475 275.509 239.741 241.93 418.504 178.313C622.257 105.803 702.056 14.3143 777.329 103.469C852.062 213.973 933.068 354.502 577.382 539.698Z" stroke="#F5E0AE" stroke-width="115"/>
</svg>
