<svg width="418" height="436" viewBox="0 0 418 436" fill="none" xmlns="http://www.w3.org/2000/svg">
<mask id="path-1-inside-1_50_4640" fill="white">
<path fill-rule="evenodd" clip-rule="evenodd" d="M221.304 0.0633426C231.992 -0.593404 239.454 3.93857 244.355 9.85924C248.683 15.0889 251.016 21.4019 251.874 26.1971C260.62 16.7993 273.413 10.1788 281.163 7.29967L281.207 7.28307L281.252 7.27233C295.287 3.8221 306.905 4.18843 316.468 7.30065C326.034 10.414 333.485 16.2562 339.213 23.6532C350.646 38.4176 355.239 59.4028 356.238 77.4901C356.572 83.5321 356.506 89.2665 356.155 94.3592L356.154 94.3876L356.15 94.4149C354.473 106.61 344.59 116.338 332.5 123.196C323.343 128.39 312.807 132.004 303.307 133.833C315.302 135.018 323.083 138.638 328.176 143.233C334.426 148.872 336.503 155.869 337.467 161.239C337.971 164.051 337.569 168.749 336.37 174.015C335.165 179.31 333.129 185.286 330.282 190.685C327.441 196.075 323.758 200.953 319.228 203.973C315.051 206.758 310.173 207.946 304.664 206.532C312.169 228.55 308.273 248.629 300.963 264.409C293.495 280.528 282.447 292.209 276.258 296.979C271.718 300.478 267.08 303.611 262.37 306.391C216.913 333.217 164.891 327.077 131.507 299.356C125.505 294.373 118.417 289.698 108.595 273.601C105.314 268.225 103.061 259.432 101.5 250.155C99.8919 240.599 98.9971 230.398 98.5041 222.596C98.2575 218.692 98.1112 215.384 98.0265 213.052C97.987 211.962 97.9621 211.084 97.9455 210.459C86.8918 214.04 76.8923 214.973 68.8693 214.52C60.65 214.057 54.425 212.132 51.2795 210.037C45.7588 207.083 39.6032 201.104 33.0744 190.557C25.9123 178.986 23.9966 170.562 25.1379 164.522C26.2909 158.422 30.5192 154.953 35.1047 153.229C37.3729 152.377 39.744 151.942 41.9142 151.817C42.7042 132.37 49.0676 122.626 57.0265 118.555C64.5724 114.694 73.2745 116.085 79.3371 118.649C80.1844 109.58 83.5347 104.085 87.5529 100.95C90.1634 98.9132 93.0151 97.9036 95.5588 97.5389C89.4784 94.4113 81.2484 87.2439 79.2502 74.4657C77.7121 64.6292 80.2331 53.2134 90.089 41.7684C99.9268 30.3447 117.059 18.9026 144.742 8.8944C159.677 3.49524 171.483 2.72007 180.659 4.70592C189.066 6.52518 195.217 10.6527 199.507 15.5741C200.291 11.7991 202.019 8.34915 205.093 5.65416C208.638 2.54616 213.885 0.519294 221.304 0.0633426ZM4.10272 284.557C36.6904 240.007 64.3481 236.506 76.7082 236.967C89.0687 237.428 94.904 243.241 96.4924 253.115C98.0807 262.99 91.9583 270.543 83.9054 274.975C75.8526 279.408 66.3721 279.859 42.3664 305.389C34.2205 314.318 19.6576 326.309 26.2394 303.242C26.2674 303.144 26.1565 303.051 26.0773 303.116C18.7269 309.138 6.40102 314.556 14.9885 295.225C15.0331 295.125 14.919 295.013 14.8332 295.082C7.16188 301.229 -7.00948 306.357 4.09393 284.572C4.09639 284.567 4.09952 284.562 4.10272 284.557ZM376.03 183.539C385.005 175.443 400.664 164.923 391.873 187.241C391.836 187.336 391.937 187.44 392.022 187.383C399.922 182.103 412.716 177.908 402.292 196.313C402.238 196.409 402.341 196.531 402.433 196.471C410.665 191.097 425.266 187.37 412.1 207.973C412.097 207.978 412.094 207.984 412.09 207.988C375.33 249.163 347.463 249.962 335.206 248.303C322.949 246.643 317.706 240.291 317.084 230.308C316.462 220.326 323.289 213.404 331.735 209.774C340.18 206.145 349.659 206.616 376.03 183.539Z"/>
</mask>
<path fill-rule="evenodd" clip-rule="evenodd" d="M221.304 0.0633426C231.992 -0.593404 239.454 3.93857 244.355 9.85924C248.683 15.0889 251.016 21.4019 251.874 26.1971C260.62 16.7993 273.413 10.1788 281.163 7.29967L281.207 7.28307L281.252 7.27233C295.287 3.8221 306.905 4.18843 316.468 7.30065C326.034 10.414 333.485 16.2562 339.213 23.6532C350.646 38.4176 355.239 59.4028 356.238 77.4901C356.572 83.5321 356.506 89.2665 356.155 94.3592L356.154 94.3876L356.15 94.4149C354.473 106.61 344.59 116.338 332.5 123.196C323.343 128.39 312.807 132.004 303.307 133.833C315.302 135.018 323.083 138.638 328.176 143.233C334.426 148.872 336.503 155.869 337.467 161.239C337.971 164.051 337.569 168.749 336.37 174.015C335.165 179.31 333.129 185.286 330.282 190.685C327.441 196.075 323.758 200.953 319.228 203.973C315.051 206.758 310.173 207.946 304.664 206.532C312.169 228.55 308.273 248.629 300.963 264.409C293.495 280.528 282.447 292.209 276.258 296.979C271.718 300.478 267.08 303.611 262.37 306.391C216.913 333.217 164.891 327.077 131.507 299.356C125.505 294.373 118.417 289.698 108.595 273.601C105.314 268.225 103.061 259.432 101.5 250.155C99.8919 240.599 98.9971 230.398 98.5041 222.596C98.2575 218.692 98.1112 215.384 98.0265 213.052C97.987 211.962 97.9621 211.084 97.9455 210.459C86.8918 214.04 76.8923 214.973 68.8693 214.52C60.65 214.057 54.425 212.132 51.2795 210.037C45.7588 207.083 39.6032 201.104 33.0744 190.557C25.9123 178.986 23.9966 170.562 25.1379 164.522C26.2909 158.422 30.5192 154.953 35.1047 153.229C37.3729 152.377 39.744 151.942 41.9142 151.817C42.7042 132.37 49.0676 122.626 57.0265 118.555C64.5724 114.694 73.2745 116.085 79.3371 118.649C80.1844 109.58 83.5347 104.085 87.5529 100.95C90.1634 98.9132 93.0151 97.9036 95.5588 97.5389C89.4784 94.4113 81.2484 87.2439 79.2502 74.4657C77.7121 64.6292 80.2331 53.2134 90.089 41.7684C99.9268 30.3447 117.059 18.9026 144.742 8.8944C159.677 3.49524 171.483 2.72007 180.659 4.70592C189.066 6.52518 195.217 10.6527 199.507 15.5741C200.291 11.7991 202.019 8.34915 205.093 5.65416C208.638 2.54616 213.885 0.519294 221.304 0.0633426ZM4.10272 284.557C36.6904 240.007 64.3481 236.506 76.7082 236.967C89.0687 237.428 94.904 243.241 96.4924 253.115C98.0807 262.99 91.9583 270.543 83.9054 274.975C75.8526 279.408 66.3721 279.859 42.3664 305.389C34.2205 314.318 19.6576 326.309 26.2394 303.242C26.2674 303.144 26.1565 303.051 26.0773 303.116C18.7269 309.138 6.40102 314.556 14.9885 295.225C15.0331 295.125 14.919 295.013 14.8332 295.082C7.16188 301.229 -7.00948 306.357 4.09393 284.572C4.09639 284.567 4.09952 284.562 4.10272 284.557ZM376.03 183.539C385.005 175.443 400.664 164.923 391.873 187.241C391.836 187.336 391.937 187.44 392.022 187.383C399.922 182.103 412.716 177.908 402.292 196.313C402.238 196.409 402.341 196.531 402.433 196.471C410.665 191.097 425.266 187.37 412.1 207.973C412.097 207.978 412.094 207.984 412.09 207.988C375.33 249.163 347.463 249.962 335.206 248.303C322.949 246.643 317.706 240.291 317.084 230.308C316.462 220.326 323.289 213.404 331.735 209.774C340.18 206.145 349.659 206.616 376.03 183.539Z" fill="#FFC044"/>
<path d="M221.304 0.0633426L221.243 -0.934775L221.243 -0.934774L221.304 0.0633426ZM244.355 9.85924L245.125 9.22166V9.22164L244.355 9.85924ZM251.874 26.1971L250.89 26.3733L251.243 28.3437L252.606 26.8784L251.874 26.1971ZM281.163 7.29967L281.512 8.23709L281.517 8.23514L281.163 7.29967ZM281.207 7.28307L280.975 6.31049L280.913 6.32522L280.854 6.3476L281.207 7.28307ZM281.252 7.27233L281.485 8.24493L281.491 8.24341L281.252 7.27233ZM316.468 7.30065L316.777 6.34974L316.777 6.34974L316.468 7.30065ZM339.213 23.6532L340.004 23.0409V23.0409L339.213 23.6532ZM356.238 77.4901L357.237 77.435V77.435L356.238 77.4901ZM356.155 94.3592L357.153 94.428L357.153 94.4279L356.155 94.3592ZM356.154 94.3876L357.143 94.529L357.149 94.4928L357.151 94.4564L356.154 94.3876ZM356.15 94.4149L355.16 94.2735L355.159 94.2787L356.15 94.4149ZM332.5 123.196L332.994 124.066V124.066L332.5 123.196ZM303.307 133.833L303.118 132.851L303.209 134.828L303.307 133.833ZM328.176 143.233L328.846 142.491V142.491L328.176 143.233ZM337.467 161.239L338.451 161.063V161.062L337.467 161.239ZM336.37 174.015L337.345 174.237V174.237L336.37 174.015ZM330.282 190.685L331.167 191.152V191.152L330.282 190.685ZM319.228 203.973L319.782 204.806H319.782L319.228 203.973ZM304.664 206.532L304.913 205.564L303.121 205.103L303.718 206.855L304.664 206.532ZM300.963 264.409L301.87 264.829V264.829L300.963 264.409ZM276.258 296.979L276.868 297.771V297.771L276.258 296.979ZM262.37 306.391L262.879 307.252V307.252L262.37 306.391ZM131.507 299.356L132.146 298.587V298.587L131.507 299.356ZM108.595 273.601L107.741 274.122L107.741 274.122L108.595 273.601ZM101.5 250.155L100.514 250.321V250.321L101.5 250.155ZM98.5041 222.596L97.5061 222.659V222.659L98.5041 222.596ZM98.0265 213.052L99.0259 213.015V213.015L98.0265 213.052ZM97.9455 210.459L98.9451 210.432L98.9097 209.095L97.6373 209.508L97.9455 210.459ZM68.8693 214.52L68.813 215.519V215.519L68.8693 214.52ZM51.2795 210.037L51.8338 209.205L51.7938 209.178L51.7513 209.155L51.2795 210.037ZM33.0744 190.557L32.2241 191.083L32.2241 191.083L33.0744 190.557ZM25.1379 164.522L24.1553 164.337L24.1553 164.337L25.1379 164.522ZM35.1047 153.229L34.7529 152.293H34.7528L35.1047 153.229ZM41.9142 151.817L41.9718 152.816L42.8766 152.763L42.9134 151.858L41.9142 151.817ZM57.0265 118.555L56.5711 117.664L56.5711 117.664L57.0265 118.555ZM79.3371 118.649L78.9475 119.57L80.2057 120.102L80.3328 118.742L79.3371 118.649ZM87.5529 100.95L86.9378 100.162L86.9377 100.162L87.5529 100.95ZM95.5588 97.5389L95.7007 98.5288L98.8044 98.0839L96.0162 96.6497L95.5588 97.5389ZM79.2502 74.4657L78.2622 74.6202V74.6202L79.2502 74.4657ZM90.089 41.7684L89.3313 41.1159L89.3313 41.1159L90.089 41.7684ZM144.742 8.8944L144.402 7.95397V7.95397L144.742 8.8944ZM180.659 4.70592L180.871 3.72855V3.72854L180.659 4.70592ZM199.507 15.5741L198.753 16.2312L200.076 17.7493L200.486 15.7775L199.507 15.5741ZM205.093 5.65416L204.434 4.90225L204.434 4.90227L205.093 5.65416ZM4.10272 284.557L3.29559 283.967L3.29302 283.971L4.10272 284.557ZM76.7082 236.967L76.7455 235.967H76.7455L76.7082 236.967ZM96.4924 253.115L97.4797 252.956V252.956L96.4924 253.115ZM83.9054 274.975L84.3876 275.852V275.852L83.9054 274.975ZM42.3664 305.389L41.6379 304.704L41.6327 304.709L41.6276 304.715L42.3664 305.389ZM26.2394 303.242L27.2011 303.516L27.2015 303.515L26.2394 303.242ZM26.0773 303.116L26.7111 303.89H26.7111L26.0773 303.116ZM14.9885 295.225L15.9023 295.631H15.9023L14.9885 295.225ZM14.8332 295.082L14.2083 294.301L14.2079 294.302L14.8332 295.082ZM4.09393 284.572L3.20331 284.117L3.20298 284.118L4.09393 284.572ZM376.03 183.539L376.689 184.291L376.695 184.286L376.7 184.281L376.03 183.539ZM391.873 187.241L392.804 187.608V187.608L391.873 187.241ZM392.022 187.383L392.577 188.214L392.577 188.214L392.022 187.383ZM402.292 196.313L401.422 195.821L401.421 195.822L402.292 196.313ZM402.433 196.471L401.886 195.633L401.886 195.633L402.433 196.471ZM412.1 207.973L412.942 208.513L412.942 208.512L412.1 207.973ZM412.09 207.988L412.836 208.654L412.836 208.654L412.09 207.988ZM335.206 248.303L335.072 249.294V249.294L335.206 248.303ZM317.084 230.308L316.086 230.371V230.371L317.084 230.308ZM331.735 209.774L331.34 208.856V208.856L331.735 209.774ZM221.304 0.0633426L221.365 1.06146C231.691 0.426977 238.858 4.78675 243.584 10.4968L244.355 9.85924L245.125 9.22164C240.051 3.0904 232.293 -1.61379 221.243 -0.934775L221.304 0.0633426ZM244.355 9.85924L243.584 10.4968C247.783 15.5695 250.056 21.7137 250.89 26.3733L251.874 26.1971L252.859 26.0209C251.976 21.09 249.583 14.6084 245.125 9.22166L244.355 9.85924ZM251.874 26.1971L252.606 26.8784C261.209 17.6342 273.847 11.0845 281.512 8.23708L281.163 7.29967L280.815 6.36226C272.98 9.27305 260.031 15.9644 251.142 25.5159L251.874 26.1971ZM281.163 7.29967L281.517 8.23514L281.561 8.21854L281.207 7.28307L280.854 6.3476L280.81 6.3642L281.163 7.29967ZM281.207 7.28307L281.44 8.25565L281.485 8.24491L281.252 7.27233L281.02 6.29975L280.975 6.31049L281.207 7.28307ZM281.252 7.27233L281.491 8.24341C295.385 4.82783 306.808 5.20859 316.158 8.25156L316.468 7.30065L316.777 6.34974C307.002 3.16826 295.189 2.81636 281.013 6.30124L281.252 7.27233ZM316.468 7.30065L316.158 8.25156C325.508 11.2943 332.799 17.0035 338.422 24.2655L339.213 23.6532L340.004 23.0409C334.171 15.5088 326.561 9.53378 316.777 6.34974L316.468 7.30065ZM339.213 23.6532L338.422 24.2654C349.674 38.7961 354.246 59.542 355.24 77.5452L356.238 77.4901L357.237 77.435C356.233 59.2636 351.618 38.0391 340.004 23.0409L339.213 23.6532ZM356.238 77.4901L355.24 77.5452C355.571 83.5462 355.505 89.2393 355.158 94.2906L356.155 94.3592L357.153 94.4279C357.506 89.2937 357.573 83.518 357.237 77.435L356.238 77.4901ZM356.155 94.3592L355.158 94.2904L355.156 94.3188L356.154 94.3876L357.151 94.4564L357.153 94.428L356.155 94.3592ZM356.154 94.3876L355.164 94.2461L355.16 94.2735L356.15 94.4149L357.14 94.5563L357.143 94.529L356.154 94.3876ZM356.15 94.4149L355.159 94.2787C353.547 106.01 344 115.523 332.007 122.326L332.5 123.196L332.994 124.066C345.179 117.154 355.4 107.211 357.14 94.5511L356.15 94.4149ZM332.5 123.196L332.007 122.326C322.954 127.461 312.523 131.04 303.118 132.851L303.307 133.833L303.496 134.815C313.091 132.967 323.732 129.32 332.994 124.066L332.5 123.196ZM303.307 133.833L303.209 134.828C315.046 135.997 322.608 139.556 327.506 143.976L328.176 143.233L328.846 142.491C323.558 137.72 315.559 134.038 303.405 132.838L303.307 133.833ZM328.176 143.233L327.506 143.976C333.517 149.399 335.536 156.14 336.483 161.416L337.467 161.239L338.451 161.062C337.471 155.599 335.334 148.345 328.846 142.491L328.176 143.233ZM337.467 161.239L336.483 161.416C336.951 164.024 336.586 168.562 335.395 173.793L336.37 174.015L337.345 174.237C338.552 168.935 338.992 164.077 338.451 161.063L337.467 161.239ZM336.37 174.015L335.395 173.793C334.206 179.017 332.198 184.908 329.398 190.219L330.282 190.685L331.167 191.152C334.06 185.664 336.123 179.603 337.345 174.237L336.37 174.015ZM330.282 190.685L329.398 190.219C326.597 195.532 323.011 200.249 318.673 203.141L319.228 203.973L319.782 204.806C324.505 201.657 328.285 196.619 331.167 191.152L330.282 190.685ZM319.228 203.973L318.673 203.141C314.706 205.787 310.116 206.899 304.913 205.564L304.664 206.532L304.416 207.501C310.229 208.993 315.397 207.729 319.782 204.806L319.228 203.973ZM304.664 206.532L303.718 206.855C311.12 228.572 307.286 248.381 300.056 263.989L300.963 264.409L301.87 264.829C309.26 248.878 313.218 228.528 305.611 206.209L304.664 206.532ZM300.963 264.409L300.056 263.989C292.659 279.955 281.715 291.511 275.648 296.187L276.258 296.979L276.868 297.771C283.179 292.908 294.332 281.101 301.87 264.829L300.963 264.409ZM276.258 296.979L275.648 296.187C271.14 299.661 266.536 302.771 261.862 305.529L262.37 306.391L262.879 307.252C267.624 304.451 272.296 301.295 276.868 297.771L276.258 296.979ZM262.37 306.391L261.862 305.529C216.757 332.148 165.195 326.03 132.146 298.587L131.507 299.356L130.868 300.126C164.587 328.124 217.069 334.286 262.879 307.252L262.37 306.391ZM131.507 299.356L132.146 298.587C126.147 293.606 119.176 289.022 109.449 273.081L108.595 273.601L107.741 274.122C117.657 290.373 124.863 295.139 130.868 300.126L131.507 299.356ZM108.595 273.601L109.449 273.081C106.277 267.882 104.047 259.26 102.486 249.989L101.5 250.155L100.514 250.321C102.076 259.604 104.351 268.567 107.741 274.122L108.595 273.601ZM101.5 250.155L102.486 249.989C100.886 240.481 99.9941 230.319 99.5021 222.533L98.5041 222.596L97.5061 222.659C98.0001 230.478 98.8977 240.717 100.514 250.321L101.5 250.155ZM98.5041 222.596L99.5021 222.533C99.2561 218.64 99.1103 215.34 99.0259 213.015L98.0265 213.052L97.0272 213.088C97.1121 215.427 97.2588 218.745 97.5061 222.659L98.5041 222.596ZM98.0265 213.052L99.0259 213.015C98.9865 211.93 98.9617 211.056 98.9451 210.432L97.9455 210.459L96.9458 210.485C96.9625 211.113 96.9875 211.994 97.0272 213.088L98.0265 213.052ZM97.9455 210.459L97.6373 209.508C86.7028 213.05 76.8271 213.968 68.9257 213.522L68.8693 214.52L68.813 215.519C76.9576 215.978 87.0807 215.03 98.2537 211.41L97.9455 210.459ZM68.8693 214.52L68.9257 213.522C60.7937 213.063 54.7705 211.161 51.8338 209.205L51.2795 210.037L50.7251 210.869C54.0794 213.104 60.5062 215.05 68.813 215.519L68.8693 214.52ZM51.2795 210.037L51.7513 209.155C46.4445 206.315 40.4036 200.497 33.9247 190.03L33.0744 190.557L32.2241 191.083C38.8029 201.711 45.0731 207.85 50.8076 210.919L51.2795 210.037ZM33.0744 190.557L33.9247 190.03C26.8142 178.543 25.0476 170.385 26.1205 164.708L25.1379 164.522L24.1553 164.337C22.9455 170.739 25.0104 179.429 32.2241 191.083L33.0744 190.557ZM25.1379 164.522L26.1205 164.708C27.1908 159.045 31.0967 155.804 35.4565 154.165L35.1047 153.229L34.7528 152.293C29.9418 154.102 25.391 157.799 24.1553 164.337L25.1379 164.522ZM35.1047 153.229L35.4565 154.165C37.618 153.353 39.8883 152.936 41.9718 152.816L41.9142 151.817L41.8566 150.819C39.5998 150.949 37.1277 151.401 34.7529 152.293L35.1047 153.229ZM41.9142 151.817L42.9134 151.858C43.696 132.593 49.9767 123.284 57.482 119.445L57.0265 118.555L56.5711 117.664C48.1585 121.968 41.7125 132.147 40.9151 151.777L41.9142 151.817ZM57.0265 118.555L57.482 119.445C64.6643 115.771 73.033 117.069 78.9475 119.57L79.3371 118.649L79.7266 117.728C73.516 115.101 64.4805 113.618 56.5711 117.664L57.0265 118.555ZM79.3371 118.649L80.3328 118.742C81.1598 109.89 84.4087 104.672 88.1681 101.738L87.5529 100.95L86.9377 100.162C82.6606 103.499 79.209 109.271 78.3414 118.556L79.3371 118.649ZM87.5529 100.95L88.1681 101.738C90.6244 99.8219 93.3074 98.8719 95.7007 98.5288L95.5588 97.5389L95.4169 96.549C92.7229 96.9352 89.7025 98.0045 86.9378 100.162L87.5529 100.95ZM95.5588 97.5389L96.0162 96.6497C90.1409 93.6275 82.1747 86.6953 80.2382 74.3112L79.2502 74.4657L78.2622 74.6202C80.322 87.7926 88.8159 95.195 95.1014 98.4282L95.5588 97.5389ZM79.2502 74.4657L80.2382 74.3112C78.749 64.7875 81.1665 53.662 90.8468 42.421L90.089 41.7684L89.3313 41.1159C79.2997 52.7648 76.6752 64.4708 78.2622 74.6202L79.2502 74.4657ZM90.089 41.7684L90.8468 42.421C100.531 31.175 117.489 19.8104 145.082 9.83483L144.742 8.8944L144.402 7.95397C116.629 17.9948 99.3222 29.5144 89.3313 41.1159L90.089 41.7684ZM144.742 8.8944L145.082 9.83483C159.891 4.48112 171.501 3.74728 180.448 5.6833L180.659 4.70592L180.871 3.72854C171.464 1.69286 159.463 2.50936 144.402 7.95397L144.742 8.8944ZM180.659 4.70592L180.448 5.6833C188.635 7.45498 194.599 11.4649 198.753 16.2312L199.507 15.5741L200.261 14.917C195.836 9.84056 189.497 5.59538 180.871 3.72855L180.659 4.70592ZM199.507 15.5741L200.486 15.7775C201.234 12.1761 202.87 8.93354 205.752 6.40606L205.093 5.65416L204.434 4.90227C201.169 7.76477 199.348 11.4221 198.528 15.3707L199.507 15.5741ZM205.093 5.65416L205.752 6.40608C209.082 3.48672 214.093 1.50841 221.365 1.06146L221.304 0.0633426L221.243 -0.934774C213.677 -0.469821 208.194 1.60561 204.434 4.90225L205.093 5.65416ZM4.10272 284.557L4.90983 285.148C21.1317 262.971 36.0795 251.075 48.4448 244.774C60.8008 238.477 70.6307 237.741 76.6709 237.966L76.7082 236.967L76.7455 235.967C70.4256 235.732 60.2466 236.515 47.5368 242.992C34.8363 249.464 19.6615 261.593 3.2956 283.967L4.10272 284.557ZM76.7082 236.967L76.6709 237.966C82.7067 238.191 87.0111 239.717 89.989 242.27C92.9616 244.818 94.7364 248.496 95.5051 253.274L96.4924 253.115L97.4797 252.956C96.6599 247.86 94.723 243.694 91.2907 240.752C87.8637 237.814 83.0702 236.203 76.7455 235.967L76.7082 236.967ZM96.4924 253.115L95.5051 253.274C96.9996 262.565 91.2792 269.775 83.4233 274.099L83.9054 274.975L84.3876 275.852C92.6374 271.311 99.1618 263.414 97.4797 252.956L96.4924 253.115ZM83.9054 274.975L83.4233 274.099C81.4593 275.18 79.4211 276.012 76.9875 277.093C74.5714 278.167 71.8393 279.456 68.6006 281.415C62.1237 285.333 53.6828 291.894 41.6379 304.704L42.3664 305.389L43.0949 306.074C55.0557 293.353 63.3578 286.924 69.6358 283.126C72.7746 281.227 75.4229 279.977 77.7994 278.921C80.1585 277.873 82.3252 276.987 84.3876 275.852L83.9054 274.975ZM42.3664 305.389L41.6276 304.715C39.6126 306.923 37.2072 309.314 34.8419 311.298C32.4484 313.305 30.1956 314.809 28.4746 315.362C27.616 315.637 27.0361 315.627 26.6694 315.482C26.3574 315.359 26.0211 315.067 25.7984 314.289C25.5671 313.481 25.4929 312.242 25.7019 310.438C25.9094 308.648 26.3872 306.369 27.2011 303.516L26.2394 303.242L25.2778 302.968C24.4462 305.882 23.9394 308.274 23.7152 310.208C23.4927 312.128 23.5401 313.667 23.8757 314.84C24.22 316.042 24.8961 316.932 25.9344 317.342C26.9179 317.731 28.026 317.606 29.0855 317.266C31.2006 316.587 33.7045 314.862 36.127 312.83C38.5775 310.775 41.0472 308.318 43.1052 306.062L42.3664 305.389ZM26.2394 303.242L27.2015 303.515C27.3399 303.027 27.1276 302.58 26.8233 302.337C26.4995 302.078 25.9212 301.951 25.4436 302.343L26.0773 303.116L26.7111 303.89C26.3126 304.216 25.8294 304.103 25.5738 303.899C25.3378 303.71 25.1669 303.359 25.2774 302.969L26.2394 303.242ZM26.0773 303.116L25.4436 302.343C23.649 303.813 21.5596 305.238 19.5802 306.252C17.5535 307.29 15.8165 307.806 14.6612 307.684C14.1262 307.627 13.7838 307.442 13.5546 307.166C13.3118 306.874 13.0915 306.352 13.0642 305.431C13.0084 303.552 13.7662 300.44 15.9023 295.631L14.9885 295.225L14.0746 294.819C11.917 299.676 10.9952 303.136 11.0651 305.49C11.1005 306.685 11.3943 307.695 12.0157 308.443C12.6508 309.209 13.5228 309.574 14.4511 309.672C16.2227 309.86 18.4087 309.099 20.4921 308.032C22.6227 306.941 24.8305 305.43 26.7111 303.89L26.0773 303.116ZM14.9885 295.225L15.9023 295.631C16.1242 295.132 15.9362 294.638 15.6476 294.364C15.3395 294.072 14.7288 293.885 14.2083 294.301L14.8332 295.082L15.4581 295.863C15.2772 296.007 15.0381 296.082 14.7922 296.055C14.5647 296.031 14.3888 295.927 14.2718 295.816C14.0506 295.606 13.8973 295.219 14.0746 294.819L14.9885 295.225ZM14.8332 295.082L14.2079 294.302C12.3467 295.793 10.094 297.219 7.94721 298.185C5.74859 299.174 3.85933 299.589 2.63422 299.324C2.07018 299.202 1.6862 298.946 1.42987 298.549C1.15763 298.128 0.957043 297.433 1.00788 296.315C1.11074 294.051 2.22278 290.445 4.98488 285.026L4.09393 284.572L3.20298 284.118C0.413376 289.591 -0.86694 293.514 -0.990058 296.224C-1.05221 297.592 -0.824192 298.745 -0.25034 299.634C0.339411 300.548 1.21899 301.064 2.21186 301.279C4.10058 301.687 6.49856 301.029 8.76764 300.009C11.0885 298.965 13.484 297.444 15.4585 295.862L14.8332 295.082ZM4.09393 284.572L4.98454 285.027C4.97702 285.042 4.96819 285.058 4.95777 285.075C4.9478 285.092 4.93275 285.116 4.91241 285.144L4.10272 284.557L3.29302 283.971C3.24976 284.03 3.22033 284.084 3.20331 284.117L4.09393 284.572ZM376.03 183.539L376.7 184.281C378.92 182.279 381.546 180.133 384.093 178.388C386.67 176.623 389.059 175.345 390.825 174.962C391.707 174.772 392.283 174.838 392.634 175.017C392.932 175.17 393.239 175.494 393.385 176.29C393.537 177.116 393.49 178.356 393.107 180.131C392.727 181.893 392.03 184.115 390.943 186.875L391.873 187.241L392.804 187.608C393.914 184.788 394.651 182.457 395.062 180.553C395.47 178.664 395.572 177.127 395.352 175.928C395.126 174.698 394.539 173.747 393.546 173.237C392.605 172.755 391.49 172.772 390.402 173.008C388.231 173.477 385.571 174.952 382.963 176.738C380.325 178.546 377.628 180.751 375.361 182.796L376.03 183.539ZM391.873 187.241L390.943 186.875C390.758 187.344 390.923 187.809 391.201 188.082C391.498 188.374 392.062 188.558 392.577 188.214L392.022 187.383L391.466 186.551C391.896 186.264 392.368 186.425 392.602 186.655C392.818 186.867 392.951 187.233 392.804 187.608L391.873 187.241ZM392.022 187.383L392.577 188.214C394.506 186.925 396.724 185.709 398.793 184.892C400.911 184.056 402.69 183.712 403.828 183.946C404.355 184.054 404.677 184.271 404.879 184.568C405.092 184.883 405.261 185.423 405.198 186.343C405.071 188.219 404.015 191.242 401.422 195.821L402.292 196.313L403.162 196.806C405.781 192.182 407.035 188.828 407.194 186.478C407.275 185.286 407.08 184.252 406.534 183.446C405.977 182.623 405.144 182.174 404.23 181.987C402.485 181.628 400.235 182.172 398.058 183.032C395.831 183.912 393.487 185.2 391.466 186.551L392.022 187.383ZM402.292 196.313L401.421 195.822C401.153 196.297 401.292 196.807 401.554 197.108C401.835 197.429 402.424 197.671 402.979 197.308L402.433 196.471L401.886 195.633C402.079 195.507 402.323 195.456 402.565 195.505C402.789 195.551 402.955 195.671 403.061 195.793C403.263 196.024 403.377 196.425 403.163 196.805L402.292 196.313ZM402.433 196.471L402.979 197.308C404.977 196.004 407.357 194.804 409.587 194.051C411.872 193.281 413.792 193.051 414.986 193.433C415.535 193.609 415.892 193.901 416.109 194.321C416.339 194.767 416.471 195.478 416.312 196.586C415.989 198.829 414.532 202.31 411.257 207.435L412.1 207.973L412.942 208.512C416.25 203.336 417.906 199.556 418.291 196.871C418.486 195.516 418.371 194.345 417.887 193.405C417.388 192.438 416.563 191.839 415.596 191.529C413.756 190.939 411.305 191.361 408.948 192.156C406.537 192.97 404.005 194.25 401.886 195.633L402.433 196.471ZM412.1 207.973L411.258 207.434C411.249 207.448 411.242 207.459 411.242 207.46C411.239 207.464 411.244 207.457 411.248 207.45C411.253 207.441 411.263 207.425 411.278 207.405C411.292 207.386 411.314 207.356 411.344 207.323L412.09 207.988L412.836 208.654C412.868 208.618 412.892 208.586 412.908 208.564C412.924 208.542 412.936 208.523 412.942 208.512C412.946 208.507 412.949 208.502 412.95 208.499C412.951 208.498 412.952 208.497 412.952 208.496C412.953 208.496 412.953 208.495 412.953 208.495C412.953 208.495 412.953 208.495 412.953 208.495C412.954 208.493 412.949 208.502 412.942 208.513L412.1 207.973ZM412.09 207.988L411.344 207.322C393.045 227.819 377.013 238.207 364.094 243.277C351.185 248.344 341.33 248.123 335.34 247.312L335.206 248.303L335.072 249.294C341.339 250.142 351.546 250.351 364.825 245.139C378.094 239.931 394.375 229.333 412.836 208.654L412.09 207.988ZM335.206 248.303L335.34 247.312C329.355 246.501 325.219 244.564 322.503 241.734C319.792 238.909 318.383 235.077 318.082 230.246L317.084 230.308L316.086 230.371C316.407 235.522 317.93 239.857 321.06 243.119C324.186 246.376 328.8 248.444 335.072 249.294L335.206 248.303ZM317.084 230.308L318.082 230.246C317.497 220.854 323.891 214.234 332.129 210.693L331.735 209.774L331.34 208.856C322.688 212.574 315.428 219.799 316.086 230.371L317.084 230.308ZM331.735 209.774L332.129 210.693C334.189 209.808 336.298 209.178 338.825 208.338C341.334 207.505 344.179 206.487 347.592 204.852C354.419 201.581 363.457 195.871 376.689 184.291L376.03 183.539L375.372 182.786C362.232 194.285 353.345 199.878 346.728 203.048C343.42 204.633 340.663 205.62 338.195 206.44C335.745 207.254 333.503 207.926 331.34 208.856L331.735 209.774Z" fill="#3E1D08" mask="url(#path-1-inside-1_50_4640)"/>
<path d="M304.586 371.307L247.214 392.494C244.637 393.445 241.776 392.14 240.805 389.57L220.467 335.731C219.469 333.089 220.856 330.145 223.528 329.233L261.123 316.39C263.689 315.513 266.486 316.842 267.428 319.385L276.564 344.053C277.127 345.574 278.393 346.727 279.959 347.147L303.766 353.521C312.566 355.878 313.132 368.151 304.586 371.307Z" fill="#F06520" stroke="#3E1D08" stroke-width="1.0379" stroke-linecap="round"/>
<path d="M118.713 367.592C124.146 357.733 136.558 334.51 141.6 319.277C142.575 316.329 145.843 314.632 148.717 315.806L185.561 330.861C187.923 331.826 189.19 334.418 188.416 336.849C185.211 346.913 182.233 352.184 179.697 355.355C178.465 356.896 177.934 358.941 178.595 360.8L188.643 389.077C191.429 396.915 183.35 404.211 175.835 400.643L120.965 374.593C118.337 373.345 117.309 370.14 118.713 367.592Z" fill="#F06520" stroke="#3E1D08" stroke-width="1.0379" stroke-linecap="round"/>
<circle cx="135.145" cy="185.095" r="17.6443" fill="#F06520"/>
<circle cx="281.49" cy="185.095" r="17.6443" fill="#F06520"/>
<circle cx="186.002" cy="171.602" r="17.6443" fill="#FCFDED"/>
<circle cx="232.708" cy="171.602" r="17.6443" fill="#FCFDED"/>
<circle cx="190.154" cy="166.413" r="11.4169" fill="#3E1D08"/>
<circle cx="236.859" cy="166.413" r="11.4169" fill="#3E1D08"/>
<path d="M165.354 222.961C165.299 223.009 165.314 223.093 165.379 223.126C175.784 228.415 190.208 232.072 209.355 231.281C229.66 230.442 244.462 225.137 254.87 218.109C254.938 218.064 254.926 217.962 254.852 217.928C210.656 197.941 176.864 212.887 165.354 222.961Z" fill="#F06520"/>
<path d="M165.354 222.961C165.299 223.009 165.314 223.093 165.379 223.126C175.784 228.415 190.208 232.072 209.355 231.281C229.66 230.442 244.462 225.137 254.87 218.109C254.938 218.064 254.926 217.962 254.852 217.928C210.656 197.941 176.864 212.887 165.354 222.961Z" stroke="#F06520" stroke-width="1.0379" stroke-linecap="round"/>
<path d="M275.8 184.575C275.8 181.635 273.413 176.791 263.864 180.943C251.928 186.132 227.537 199.625 198.995 198.068C170.453 196.511 157.963 191.841 150.735 191.841C146.586 191.841 144.505 193.398 143.467 196.511C142.189 201.63 148.435 214.438 165.18 223.025C165.218 223.045 165.263 223.041 165.295 223.013C176.757 212.93 210.639 197.88 254.969 217.982C255.002 217.997 255.041 217.994 255.071 217.973C270.263 207.627 276.005 193.605 275.8 184.575Z" fill="#3E1D08"/>
<path d="M275.8 184.575C275.8 181.635 273.413 176.791 263.864 180.943C251.928 186.132 227.537 199.625 198.995 198.068C170.453 196.511 157.963 191.841 150.735 191.841C146.586 191.841 144.505 193.398 143.467 196.511C142.189 201.63 148.435 214.438 165.18 223.025C165.218 223.045 165.263 223.041 165.295 223.013C176.757 212.93 210.639 197.88 254.969 217.982C255.002 217.997 255.041 217.994 255.071 217.973C270.263 207.627 276.005 193.605 275.8 184.575Z" stroke="#3E1D08" stroke-width="1.0379" stroke-linecap="round"/>
</svg>
