<svg width="87" height="67" viewBox="0 0 87 67" fill="none" xmlns="http://www.w3.org/2000/svg">
<path d="M48.3289 65.0662C15.1289 69.8662 2.82886 49.7329 0.828859 39.0662C-1.89059 24.5664 12.9955 24.3996 18.3289 26.5664C9.52886 9.36641 21.9955 3.39974 29.3289 2.56641C39.7289 1.76641 43.9955 10.2331 44.8289 14.5664C43.6289 2.16642 52.6622 0.0664175 57.3289 0.566418C71.3289 1.76642 69.8281 14.5664 67.3288 20.0662C76.1289 11.6662 85.1066 19.0664 85.8288 25.5664C87.1622 37.5664 81.5289 60.2662 48.3289 65.0662Z" fill="#F5E0AE" stroke="#3E1D08" stroke-linejoin="round"/>
<mask id="path-2-outside-1_50_4743" maskUnits="userSpaceOnUse" x="22.5" y="26.5" width="43" height="22" fill="black">
<rect fill="white" x="22.5" y="26.5" width="43" height="22"/>
<path d="M23.425 28.075C25.0017 27.8917 26.6517 27.7542 28.375 27.6625C30.1167 27.5708 31.8217 27.525 33.49 27.525H34.26C35.8 27.525 37.0742 27.6717 38.0825 27.965C39.0908 28.2583 39.8975 28.6525 40.5025 29.1475C41.1075 29.6425 41.5292 30.2292 41.7675 30.9075C42.0058 31.5675 42.125 32.2733 42.125 33.025V33.575C42.125 34.3817 41.8867 35.115 41.41 35.775C40.9333 36.435 40.0808 36.93 38.8525 37.26C39.5675 37.425 40.1725 37.6358 40.6675 37.8925C41.1625 38.1492 41.5567 38.4425 41.85 38.7725C42.1433 39.1025 42.3542 39.46 42.4825 39.845C42.6108 40.2117 42.675 40.5967 42.675 41V41.55C42.675 42.3017 42.5467 43.0167 42.29 43.695C42.0333 44.355 41.5842 44.9325 40.9425 45.4275C40.3008 45.9225 39.4392 46.3167 38.3575 46.61C37.2758 46.9033 35.91 47.05 34.26 47.05H33.49C31.8217 47.05 30.1167 47.0042 28.375 46.9125C26.6517 46.8208 25.0017 46.6833 23.425 46.5V28.075ZM33.6 31.925C32.9217 31.925 32.1058 31.9433 31.1525 31.98C30.2175 32.0167 29.2917 32.0808 28.375 32.1725V35.225H33.27C34.3883 35.225 35.25 35.1883 35.855 35.115C36.46 35.0233 36.9 34.9042 37.175 34.7575C37.45 34.6108 37.6058 34.4367 37.6425 34.235C37.6975 34.0333 37.725 33.8133 37.725 33.575C37.725 33.355 37.6975 33.1442 37.6425 32.9425C37.5875 32.7408 37.4225 32.5667 37.1475 32.42C36.8908 32.255 36.4783 32.1358 35.91 32.0625C35.36 31.9708 34.59 31.925 33.6 31.925ZM28.375 39.625V42.4025C29.2917 42.4942 30.2175 42.5583 31.1525 42.595C32.1058 42.6317 32.9492 42.65 33.6825 42.65C34.7825 42.65 35.635 42.6133 36.24 42.54C36.8633 42.4483 37.3217 42.3292 37.615 42.1825C37.9267 42.0175 38.11 41.8342 38.165 41.6325C38.2383 41.4308 38.275 41.22 38.275 41C38.275 40.8167 38.2475 40.6425 38.1925 40.4775C38.1375 40.2942 37.9542 40.1475 37.6425 40.0375C37.3308 39.9092 36.8358 39.8083 36.1575 39.735C35.4792 39.6617 34.5167 39.625 33.27 39.625H28.375ZM50.3771 28.075V35.225H53.5396L59.5346 28.075H64.3746V29.175L57.5821 37.2875L64.3746 45.4V46.5H59.5346L53.7596 39.625H50.3771V46.5H45.4271V28.075H50.3771Z"/>
</mask>
<path d="M23.425 28.075C25.0017 27.8917 26.6517 27.7542 28.375 27.6625C30.1167 27.5708 31.8217 27.525 33.49 27.525H34.26C35.8 27.525 37.0742 27.6717 38.0825 27.965C39.0908 28.2583 39.8975 28.6525 40.5025 29.1475C41.1075 29.6425 41.5292 30.2292 41.7675 30.9075C42.0058 31.5675 42.125 32.2733 42.125 33.025V33.575C42.125 34.3817 41.8867 35.115 41.41 35.775C40.9333 36.435 40.0808 36.93 38.8525 37.26C39.5675 37.425 40.1725 37.6358 40.6675 37.8925C41.1625 38.1492 41.5567 38.4425 41.85 38.7725C42.1433 39.1025 42.3542 39.46 42.4825 39.845C42.6108 40.2117 42.675 40.5967 42.675 41V41.55C42.675 42.3017 42.5467 43.0167 42.29 43.695C42.0333 44.355 41.5842 44.9325 40.9425 45.4275C40.3008 45.9225 39.4392 46.3167 38.3575 46.61C37.2758 46.9033 35.91 47.05 34.26 47.05H33.49C31.8217 47.05 30.1167 47.0042 28.375 46.9125C26.6517 46.8208 25.0017 46.6833 23.425 46.5V28.075ZM33.6 31.925C32.9217 31.925 32.1058 31.9433 31.1525 31.98C30.2175 32.0167 29.2917 32.0808 28.375 32.1725V35.225H33.27C34.3883 35.225 35.25 35.1883 35.855 35.115C36.46 35.0233 36.9 34.9042 37.175 34.7575C37.45 34.6108 37.6058 34.4367 37.6425 34.235C37.6975 34.0333 37.725 33.8133 37.725 33.575C37.725 33.355 37.6975 33.1442 37.6425 32.9425C37.5875 32.7408 37.4225 32.5667 37.1475 32.42C36.8908 32.255 36.4783 32.1358 35.91 32.0625C35.36 31.9708 34.59 31.925 33.6 31.925ZM28.375 39.625V42.4025C29.2917 42.4942 30.2175 42.5583 31.1525 42.595C32.1058 42.6317 32.9492 42.65 33.6825 42.65C34.7825 42.65 35.635 42.6133 36.24 42.54C36.8633 42.4483 37.3217 42.3292 37.615 42.1825C37.9267 42.0175 38.11 41.8342 38.165 41.6325C38.2383 41.4308 38.275 41.22 38.275 41C38.275 40.8167 38.2475 40.6425 38.1925 40.4775C38.1375 40.2942 37.9542 40.1475 37.6425 40.0375C37.3308 39.9092 36.8358 39.8083 36.1575 39.735C35.4792 39.6617 34.5167 39.625 33.27 39.625H28.375ZM50.3771 28.075V35.225H53.5396L59.5346 28.075H64.3746V29.175L57.5821 37.2875L64.3746 45.4V46.5H59.5346L53.7596 39.625H50.3771V46.5H45.4271V28.075H50.3771Z" fill="#3E1D08"/>
<path d="M23.425 28.075L23.3456 27.3921L22.7375 27.4628V28.075H23.425ZM28.375 27.6625L28.3389 26.9759L28.3385 26.976L28.375 27.6625ZM38.0825 27.965L37.8905 28.6251H37.8905L38.0825 27.965ZM41.7675 30.9075L41.1188 31.1354L41.1209 31.141L41.7675 30.9075ZM38.8525 37.26L38.6741 36.596L38.6979 37.9299L38.8525 37.26ZM41.85 38.7725L41.3362 39.2292L41.3362 39.2292L41.85 38.7725ZM42.4825 39.845L41.8302 40.0624L41.8336 40.0721L42.4825 39.845ZM42.29 43.695L42.9308 43.9442L42.933 43.9383L42.29 43.695ZM40.9425 45.4275L40.5226 44.8832V44.8832L40.9425 45.4275ZM38.3575 46.61L38.1776 45.9465L38.3575 46.61ZM28.375 46.9125L28.3385 47.599L28.3389 47.5991L28.375 46.9125ZM23.425 46.5H22.7375V47.1122L23.3456 47.1829L23.425 46.5ZM31.1525 31.98L31.1261 31.293L31.1256 31.293L31.1525 31.98ZM28.375 32.1725L28.3066 31.4884L27.6875 31.5503V32.1725H28.375ZM28.375 35.225H27.6875V35.9125H28.375V35.225ZM35.855 35.115L35.9377 35.7975L35.9479 35.7963L35.958 35.7947L35.855 35.115ZM37.175 34.7575L37.4985 35.3641L37.4985 35.3641L37.175 34.7575ZM37.6425 34.235L36.9792 34.0541L36.9714 34.0828L36.9661 34.112L37.6425 34.235ZM37.6425 32.9425L36.9792 33.1234V33.1234L37.6425 32.9425ZM37.1475 32.42L36.7757 32.9983L36.7993 33.0134L36.824 33.0266L37.1475 32.42ZM35.91 32.0625L35.797 32.7406L35.8095 32.7427L35.822 32.7443L35.91 32.0625ZM28.375 39.625V38.9375H27.6875V39.625H28.375ZM28.375 42.4025H27.6875V43.0247L28.3066 43.0866L28.375 42.4025ZM31.1525 42.595L31.1256 43.282L31.1261 43.282L31.1525 42.595ZM36.24 42.54L36.3227 43.2225L36.3314 43.2215L36.34 43.2202L36.24 42.54ZM37.615 42.1825L37.9225 42.7974L37.9296 42.7938L37.9367 42.7901L37.615 42.1825ZM38.165 41.6325L37.5189 41.3976L37.5092 41.4242L37.5017 41.4516L38.165 41.6325ZM38.1925 40.4775L37.534 40.6751L37.537 40.685L37.5403 40.6949L38.1925 40.4775ZM37.6425 40.0375L37.3807 40.6732L37.397 40.6799L37.4137 40.6858L37.6425 40.0375ZM36.1575 39.735L36.2314 39.0515V39.0515L36.1575 39.735ZM23.425 28.075L23.5044 28.7579C25.0657 28.5764 26.7013 28.44 28.4115 28.349L28.375 27.6625L28.3385 26.976C26.602 27.0683 24.9377 27.207 23.3456 27.3921L23.425 28.075ZM28.375 27.6625L28.4111 28.349C30.1413 28.258 31.8342 28.2125 33.49 28.2125V27.525V26.8375C31.8091 26.8375 30.092 26.8837 28.3389 26.9759L28.375 27.6625ZM33.49 27.525V28.2125H34.26V27.525V26.8375H33.49V27.525ZM34.26 27.525V28.2125C35.7623 28.2125 36.9662 28.3563 37.8905 28.6251L38.0825 27.965L38.2745 27.3049C37.1821 26.9871 35.8377 26.8375 34.26 26.8375V27.525ZM38.0825 27.965L37.8905 28.6251C38.8387 28.901 39.5539 29.2596 40.0672 29.6796L40.5025 29.1475L40.9379 28.6154C40.2411 28.0454 39.343 27.6157 38.2745 27.3049L38.0825 27.965ZM40.5025 29.1475L40.0672 29.6796C40.5833 30.1019 40.926 30.5864 41.1189 31.1354L41.7675 30.9075L42.4161 30.6796C42.1323 29.8719 41.6317 29.1831 40.9379 28.6154L40.5025 29.1475ZM41.7675 30.9075L41.1209 31.141C41.3303 31.7209 41.4375 32.3473 41.4375 33.025H42.125H42.8125C42.8125 32.1994 42.6814 31.4141 42.4141 30.674L41.7675 30.9075ZM42.125 33.025H41.4375V33.575H42.125H42.8125V33.025H42.125ZM42.125 33.575H41.4375C41.4375 34.2357 41.2456 34.8285 40.8527 35.3725L41.41 35.775L41.9673 36.1775C42.5278 35.4015 42.8125 34.5276 42.8125 33.575H42.125ZM41.41 35.775L40.8527 35.3725C40.5079 35.8498 39.8309 36.2853 38.6741 36.596L38.8525 37.26L39.0309 37.924C40.3308 37.5747 41.3587 37.0202 41.9673 36.1775L41.41 35.775ZM38.8525 37.26L38.6979 37.9299C39.3733 38.0857 39.9205 38.2796 40.351 38.5028L40.6675 37.8925L40.984 37.2822C40.4245 36.9921 39.7617 36.7643 39.0071 36.5901L38.8525 37.26ZM40.6675 37.8925L40.351 38.5028C40.7902 38.7306 41.1112 38.9762 41.3362 39.2292L41.85 38.7725L42.3638 38.3158C42.0021 37.9088 41.5348 37.5678 40.984 37.2822L40.6675 37.8925ZM41.85 38.7725L41.3362 39.2292C41.5731 39.4958 41.7339 39.7732 41.8303 40.0624L42.4825 39.845L43.1347 39.6276C42.9744 39.1467 42.7135 38.7092 42.3638 38.3157L41.85 38.7725ZM42.4825 39.845L41.8336 40.0721C41.9354 40.363 41.9875 40.671 41.9875 41H42.675H43.3625C43.3625 40.5223 43.2863 40.0603 43.1314 39.6179L42.4825 39.845ZM42.675 41H41.9875V41.55H42.675H43.3625V41H42.675ZM42.675 41.55H41.9875C41.9875 42.2216 41.8732 42.8539 41.647 43.4517L42.29 43.695L42.933 43.9383C43.2202 43.1794 43.3625 42.3817 43.3625 41.55H42.675ZM42.29 43.695L41.6492 43.4458C41.4442 43.9731 41.0797 44.4533 40.5226 44.8832L40.9425 45.4275L41.3624 45.9719C42.0886 45.4117 42.6225 44.7369 42.9308 43.9442L42.29 43.695ZM40.9425 45.4275L40.5226 44.8832C39.974 45.3063 39.2033 45.6683 38.1776 45.9465L38.3575 46.61L38.5374 47.2735C39.6751 46.965 40.6276 46.5387 41.3624 45.9718L40.9425 45.4275ZM38.3575 46.61L38.1776 45.9465C37.1751 46.2183 35.875 46.3625 34.26 46.3625V47.05V47.7375C35.945 47.7375 37.3766 47.5883 38.5374 47.2735L38.3575 46.61ZM34.26 47.05V46.3625H33.49V47.05V47.7375H34.26V47.05ZM33.49 47.05V46.3625C31.8342 46.3625 30.1413 46.317 28.4111 46.226L28.375 46.9125L28.3389 47.5991C30.092 47.6913 31.8091 47.7375 33.49 47.7375V47.05ZM28.375 46.9125L28.4115 46.226C26.7013 46.135 25.0657 45.9986 23.5044 45.8171L23.425 46.5L23.3456 47.1829C24.9377 47.368 26.602 47.5067 28.3385 47.599L28.375 46.9125ZM23.425 46.5H24.1125V28.075H23.425H22.7375V46.5H23.425ZM33.6 31.925V31.2375C32.9101 31.2375 32.085 31.2561 31.1261 31.293L31.1525 31.98L31.1789 32.667C32.1267 32.6305 32.9332 32.6125 33.6 32.6125V31.925ZM31.1525 31.98L31.1256 31.293C30.1769 31.3302 29.2373 31.3953 28.3066 31.4884L28.375 32.1725L28.4434 32.8566C29.3461 32.7663 30.2581 32.7031 31.1794 32.667L31.1525 31.98ZM28.375 32.1725H27.6875V35.225H28.375H29.0625V32.1725H28.375ZM28.375 35.225V35.9125H33.27V35.225V34.5375H28.375V35.225ZM33.27 35.225V35.9125C34.3972 35.9125 35.2915 35.8758 35.9377 35.7975L35.855 35.115L35.7723 34.4325C35.2085 34.5008 34.3794 34.5375 33.27 34.5375V35.225ZM35.855 35.115L35.958 35.7947C36.5806 35.7004 37.1164 35.5679 37.4985 35.3641L37.175 34.7575L36.8515 34.1509C36.6836 34.2404 36.3394 34.3463 35.752 34.4353L35.855 35.115ZM37.175 34.7575L37.4985 35.3641C37.8604 35.1711 38.2284 34.8556 38.3189 34.358L37.6425 34.235L36.9661 34.112C36.9693 34.0942 36.975 34.0789 36.9808 34.0677C36.9862 34.057 36.9896 34.0542 36.9858 34.0585C36.9762 34.0691 36.9401 34.1036 36.8515 34.1509L37.175 34.7575ZM37.6425 34.235L38.3058 34.4159C38.3789 34.1477 38.4125 33.8661 38.4125 33.575H37.725H37.0375C37.0375 33.7606 37.0161 33.919 36.9792 34.0541L37.6425 34.235ZM37.725 33.575H38.4125C38.4125 33.2971 38.3777 33.0252 38.3058 32.7616L37.6425 32.9425L36.9792 33.1234C37.0173 33.2631 37.0375 33.4129 37.0375 33.575H37.725ZM37.6425 32.9425L38.3058 32.7616C38.1809 32.3037 37.8311 32.0054 37.471 31.8134L37.1475 32.42L36.824 33.0266C36.9146 33.0749 36.9595 33.1135 36.9784 33.1334C36.9946 33.1505 36.9857 33.1471 36.9792 33.1234L37.6425 32.9425ZM37.1475 32.42L37.5193 31.8417C37.1309 31.592 36.5938 31.4575 35.998 31.3807L35.91 32.0625L35.822 32.7443C36.3629 32.8141 36.6507 32.918 36.7757 32.9983L37.1475 32.42ZM35.91 32.0625L36.023 31.3844C35.4176 31.2835 34.6036 31.2375 33.6 31.2375V31.925V32.6125C34.5764 32.6125 35.3024 32.6582 35.797 32.7406L35.91 32.0625ZM28.375 39.625H27.6875V42.4025H28.375H29.0625V39.625H28.375ZM28.375 42.4025L28.3066 43.0866C29.2373 43.1797 30.1769 43.2448 31.1256 43.282L31.1525 42.595L31.1794 41.908C30.2581 41.8719 29.3461 41.8087 28.4434 41.7184L28.375 42.4025ZM31.1525 42.595L31.1261 43.282C32.0858 43.3189 32.9382 43.3375 33.6825 43.3375V42.65V41.9625C32.9601 41.9625 32.1259 41.9444 31.1789 41.908L31.1525 42.595ZM33.6825 42.65V43.3375C34.792 43.3375 35.6767 43.3008 36.3227 43.2225L36.24 42.54L36.1573 41.8575C35.5933 41.9259 34.773 41.9625 33.6825 41.9625V42.65ZM36.24 42.54L36.34 43.2202C36.9819 43.1258 37.5286 42.9943 37.9225 42.7974L37.615 42.1825L37.3075 41.5676C37.1147 41.664 36.7448 41.7709 36.14 41.8598L36.24 42.54ZM37.615 42.1825L37.9367 42.7901C38.3067 42.5942 38.698 42.291 38.8283 41.8134L38.165 41.6325L37.5017 41.4516C37.5124 41.4124 37.5273 41.4079 37.5001 41.4351C37.4708 41.4644 37.4088 41.5138 37.2933 41.5749L37.615 42.1825ZM38.165 41.6325L38.8111 41.8674C38.9125 41.5886 38.9625 41.2981 38.9625 41H38.275H37.5875C37.5875 41.1419 37.5641 41.2731 37.5189 41.3976L38.165 41.6325ZM38.275 41H38.9625C38.9625 40.7468 38.9243 40.4989 38.8447 40.2601L38.1925 40.4775L37.5403 40.6949C37.5707 40.7861 37.5875 40.8865 37.5875 41H38.275ZM38.1925 40.4775L38.851 40.2799C38.6986 39.7718 38.2426 39.5202 37.8713 39.3892L37.6425 40.0375L37.4137 40.6858C37.4669 40.7046 37.5068 40.7222 37.5357 40.7372C37.5648 40.7523 37.5794 40.763 37.5843 40.7668C37.5889 40.7705 37.5815 40.7655 37.5698 40.7494C37.5576 40.7324 37.5437 40.7072 37.534 40.6751L38.1925 40.4775ZM37.6425 40.0375L37.9043 39.4018C37.4983 39.2346 36.9224 39.1262 36.2314 39.0515L36.1575 39.735L36.0836 40.4185C36.7492 40.4905 37.1634 40.5837 37.3807 40.6732L37.6425 40.0375ZM36.1575 39.735L36.2314 39.0515C35.5162 38.9742 34.5248 38.9375 33.27 38.9375V39.625V40.3125C34.5086 40.3125 35.4421 40.3492 36.0836 40.4185L36.1575 39.735ZM33.27 39.625V38.9375H28.375V39.625V40.3125H33.27V39.625ZM50.3771 28.075H51.0646V27.3875H50.3771V28.075ZM50.3771 35.225H49.6896V35.9125H50.3771V35.225ZM53.5396 35.225V35.9125H53.8604L54.0665 35.6667L53.5396 35.225ZM59.5346 28.075V27.3875H59.2139L59.0078 27.6333L59.5346 28.075ZM64.3746 28.075H65.0621V27.3875H64.3746V28.075ZM64.3746 29.175L64.9018 29.6164L65.0621 29.4248V29.175H64.3746ZM57.5821 37.2875L57.055 36.8461L56.6855 37.2875L57.055 37.7289L57.5821 37.2875ZM64.3746 45.4H65.0621V45.1502L64.9018 44.9586L64.3746 45.4ZM64.3746 46.5V47.1875H65.0621V46.5H64.3746ZM59.5346 46.5L59.0082 46.9422L59.2143 47.1875H59.5346V46.5ZM53.7596 39.625L54.2861 39.1828L54.08 38.9375H53.7596V39.625ZM50.3771 39.625V38.9375H49.6896V39.625H50.3771ZM50.3771 46.5V47.1875H51.0646V46.5H50.3771ZM45.4271 46.5H44.7396V47.1875H45.4271V46.5ZM45.4271 28.075V27.3875H44.7396V28.075H45.4271ZM50.3771 28.075H49.6896V35.225H50.3771H51.0646V28.075H50.3771ZM50.3771 35.225V35.9125H53.5396V35.225V34.5375H50.3771V35.225ZM53.5396 35.225L54.0665 35.6667L60.0615 28.5167L59.5346 28.075L59.0078 27.6333L53.0128 34.7833L53.5396 35.225ZM59.5346 28.075V28.7625H64.3746V28.075V27.3875H59.5346V28.075ZM64.3746 28.075H63.6871V29.175H64.3746H65.0621V28.075H64.3746ZM64.3746 29.175L63.8475 28.7336L57.055 36.8461L57.5821 37.2875L58.1093 37.7289L64.9018 29.6164L64.3746 29.175ZM57.5821 37.2875L57.055 37.7289L63.8475 45.8414L64.3746 45.4L64.9018 44.9586L58.1093 36.8461L57.5821 37.2875ZM64.3746 45.4H63.6871V46.5H64.3746H65.0621V45.4H64.3746ZM64.3746 46.5V45.8125H59.5346V46.5V47.1875H64.3746V46.5ZM59.5346 46.5L60.0611 46.0578L54.2861 39.1828L53.7596 39.625L53.2332 40.0672L59.0082 46.9422L59.5346 46.5ZM53.7596 39.625V38.9375H50.3771V39.625V40.3125H53.7596V39.625ZM50.3771 39.625H49.6896V46.5H50.3771H51.0646V39.625H50.3771ZM50.3771 46.5V45.8125H45.4271V46.5V47.1875H50.3771V46.5ZM45.4271 46.5H46.1146V28.075H45.4271H44.7396V46.5H45.4271ZM45.4271 28.075V28.7625H50.3771V28.075V27.3875H45.4271V28.075Z" fill="#3E1D08" mask="url(#path-2-outside-1_50_4743)"/>
</svg>
