<svg width="493" height="106" viewBox="0 0 493 106" fill="none" xmlns="http://www.w3.org/2000/svg">
<path d="M38 0.5C17.2893 0.5 0.5 17.2893 0.5 38C0.5 58.7107 17.2893 75.5 38 75.5H49.4404C47.3021 84.9115 38.5254 98.1672 14.4277 100.952C14.323 100.964 14.2894 101.106 14.3887 101.142C30.4775 106.93 64.4693 109.192 79.9404 75.5H455C475.711 75.5 492.5 58.7107 492.5 38C492.5 17.2893 475.711 0.5 455 0.5H38Z" fill="#F5E0AE"/>
<path d="M38 75.5V76V76V75.5ZM49.4404 75.5V75H50.0668L49.928 75.6108L49.4404 75.5ZM14.4277 100.952L14.3696 100.456L14.3703 100.455L14.4277 100.952ZM14.3887 101.142L14.2194 101.612V101.612L14.3887 101.142ZM79.9404 75.5L79.4861 75.2914L79.6198 75H79.9404V75.5ZM455 0.5V0V0V0.5ZM38 0.5V1C17.5655 1 1 17.5655 1 38H0.5H0C0 17.0132 17.0132 0 38 0V0.5ZM0.5 38H1C1 58.4345 17.5655 75 38 75V75.5V76C17.0132 76 0 58.9868 0 38H0.5ZM38 75.5V75H49.4404V75.5V76H38V75.5ZM49.4404 75.5L49.928 75.6108C47.7413 85.235 38.7875 98.6402 14.4851 101.449L14.4277 100.952L14.3703 100.455C38.2632 97.6942 46.8628 84.588 48.9529 75.3892L49.4404 75.5ZM14.4277 100.952L14.4859 101.449C14.6656 101.428 14.788 101.291 14.8201 101.145C14.8366 101.07 14.8341 100.973 14.7861 100.876C14.7347 100.773 14.6476 100.703 14.558 100.671L14.3887 101.142L14.2194 101.612C14.0801 101.562 13.96 101.461 13.8903 101.321C13.824 101.187 13.8177 101.047 13.8434 100.931C13.8936 100.702 14.0852 100.489 14.3696 100.456L14.4277 100.952ZM14.3887 101.142L14.558 100.671C22.5322 103.54 34.9524 105.535 47.2819 102.639C59.587 99.749 71.82 91.9858 79.4861 75.2914L79.9404 75.5L80.3948 75.7086C72.5898 92.7058 60.0913 100.658 47.5105 103.613C34.954 106.562 22.334 104.532 14.2194 101.612L14.3887 101.142ZM79.9404 75.5V75H455V75.5V76H79.9404V75.5ZM455 75.5V75C475.435 75 492 58.4345 492 38H492.5H493C493 58.9868 475.987 76 455 76V75.5ZM492.5 38H492C492 17.5655 475.435 1 455 1V0.5V0C475.987 4.76837e-07 493 17.0132 493 38H492.5ZM455 0.5V1H38V0.5V0H455V0.5Z" fill="#3E1D08"/>
<text x="246.5" y="38" text-anchor="middle" dominant-baseline="central" font-family="sans-serif" font-size="22" font-weight="700" letter-spacing="2" fill="#3E1D08" text-rendering="optimizeLegibility">ЧТО ЕЩЁ ПОСМОТРЕТЬ?</text>
</svg>
