<svg width="367" height="106" viewBox="0 0 367 106" fill="none" xmlns="http://www.w3.org/2000/svg">
<path d="M329 0.5C349.711 0.5 366.5 17.2893 366.5 38C366.5 58.7107 349.711 75.5 329 75.5H317.56C319.698 84.9115 328.475 98.1672 352.572 100.952C352.677 100.964 352.711 101.106 352.611 101.142C336.523 106.93 302.531 109.192 287.06 75.5H38C17.2893 75.5 0.5 58.7107 0.5 38C0.5 17.2893 17.2893 0.5 38 0.5H329Z" fill="#F5E0AE"/>
<path d="M317.56 75.5V75H316.933L317.072 75.6108L317.56 75.5ZM352.572 100.952L352.63 100.456L352.63 100.455L352.572 100.952ZM352.611 101.142L352.781 101.612V101.612L352.611 101.142ZM287.06 75.5L287.514 75.2914L287.38 75H287.06V75.5ZM329 0.5V1C349.435 1 366 17.5655 366 38H366.5H367C367 17.0132 349.987 0 329 0V0.5ZM366.5 38H366C366 58.4345 349.435 75 329 75V75.5V76C349.987 76 367 58.9868 367 38H366.5ZM329 75.5V75H317.56V75.5V76H329V75.5ZM317.56 75.5L317.072 75.6108C319.259 85.235 328.212 98.6402 352.515 101.449L352.572 100.952L352.63 100.455C328.737 97.6942 320.137 84.588 318.047 75.3892L317.56 75.5ZM352.572 100.952L352.514 101.449C352.334 101.428 352.212 101.291 352.18 101.145C352.163 101.07 352.166 100.973 352.214 100.876C352.265 100.773 352.352 100.703 352.442 100.671L352.611 101.142L352.781 101.612C352.92 101.562 353.04 101.461 353.11 101.321C353.176 101.187 353.182 101.047 353.157 100.931C353.106 100.702 352.915 100.489 352.63 100.456L352.572 100.952ZM352.611 101.142L352.442 100.671C344.468 103.54 332.048 105.535 319.718 102.639C307.413 99.749 295.18 91.9858 287.514 75.2914L287.06 75.5L286.605 75.7086C294.41 92.7058 306.909 100.658 319.49 103.613C332.046 106.562 344.666 104.532 352.781 101.612L352.611 101.142ZM287.06 75.5V75H38V75.5V76H287.06V75.5ZM38 75.5V75C17.5655 75 1 58.4345 1 38H0.5H0C0 58.9868 17.0132 76 38 76V75.5ZM0.5 38H1C1 17.5655 17.5655 1 38 1V0.5V0C17.0132 0 0 17.0132 0 38H0.5ZM38 0.5V1H329V0.5V0H38V0.5Z" fill="#3E1D08"/>
</svg>
