<svg width="87" height="67" viewBox="0 0 87 67" fill="none" xmlns="http://www.w3.org/2000/svg">
<path d="M48.3289 65.0662C15.1289 69.8662 2.82886 49.7329 0.828859 39.0662C-1.89059 24.5664 12.9955 24.3996 18.3289 26.5664C9.52886 9.36641 21.9955 3.39974 29.3289 2.56641C39.7289 1.76641 43.9955 10.2331 44.8289 14.5664C43.6289 2.16642 52.6622 0.0664175 57.3289 0.566418C71.3289 1.76642 69.8281 14.5664 67.3288 20.0662C76.1289 11.6662 85.1066 19.0664 85.8288 25.5664C87.1622 37.5664 81.5289 60.2662 48.3289 65.0662Z" fill="#F5E0AE" stroke="#3E1D08" stroke-linejoin="round"/>
<mask id="path-2-outside-1_50_4747" maskUnits="userSpaceOnUse" x="21.5" y="26.5" width="43" height="21" fill="black">
<rect fill="white" x="21.5" y="26.5" width="43" height="21"/>
<path d="M30.255 39.6525L23.05 29.175V28.075H27.9175L32.73 35.72L37.57 28.075H42.41V29.175L35.205 39.6525V46.5H30.255V39.6525ZM51.0205 46.5V32.475H43.8705V28.075H63.148V32.475H55.9705V46.5H51.0205Z"/>
</mask>
<path d="M30.255 39.6525L23.05 29.175V28.075H27.9175L32.73 35.72L37.57 28.075H42.41V29.175L35.205 39.6525V46.5H30.255V39.6525ZM51.0205 46.5V32.475H43.8705V28.075H63.148V32.475H55.9705V46.5H51.0205Z" fill="#3E1D08"/>
<path d="M30.255 39.6525H30.9425V39.4389L30.8215 39.2629L30.255 39.6525ZM23.05 29.175H22.3625V29.3886L22.4835 29.5646L23.05 29.175ZM23.05 28.075V27.3875H22.3625V28.075H23.05ZM27.9175 28.075L28.4993 27.7087L28.2971 27.3875H27.9175V28.075ZM32.73 35.72L32.1482 36.0863L32.7283 37.0079L33.3109 36.0877L32.73 35.72ZM37.57 28.075V27.3875H37.1916L36.9891 27.7073L37.57 28.075ZM42.41 28.075H43.0975V27.3875H42.41V28.075ZM42.41 29.175L42.9765 29.5646L43.0975 29.3886V29.175H42.41ZM35.205 39.6525L34.6385 39.2629L34.5175 39.4389V39.6525H35.205ZM35.205 46.5V47.1875H35.8925V46.5H35.205ZM30.255 46.5H29.5675V47.1875H30.255V46.5ZM30.255 39.6525L30.8215 39.2629L23.6165 28.7854L23.05 29.175L22.4835 29.5646L29.6885 40.0421L30.255 39.6525ZM23.05 29.175H23.7375V28.075H23.05H22.3625V29.175H23.05ZM23.05 28.075V28.7625H27.9175V28.075V27.3875H23.05V28.075ZM27.9175 28.075L27.3357 28.4413L32.1482 36.0863L32.73 35.72L33.3118 35.3537L28.4993 27.7087L27.9175 28.075ZM32.73 35.72L33.3109 36.0877L38.1509 28.4427L37.57 28.075L36.9891 27.7073L32.1491 35.3523L32.73 35.72ZM37.57 28.075V28.7625H42.41V28.075V27.3875H37.57V28.075ZM42.41 28.075H41.7225V29.175H42.41H43.0975V28.075H42.41ZM42.41 29.175L41.8435 28.7854L34.6385 39.2629L35.205 39.6525L35.7715 40.0421L42.9765 29.5646L42.41 29.175ZM35.205 39.6525H34.5175V46.5H35.205H35.8925V39.6525H35.205ZM35.205 46.5V45.8125H30.255V46.5V47.1875H35.205V46.5ZM30.255 46.5H30.9425V39.6525H30.255H29.5675V46.5H30.255ZM51.0205 46.5H50.333V47.1875H51.0205V46.5ZM51.0205 32.475H51.708V31.7875H51.0205V32.475ZM43.8705 32.475H43.183V33.1625H43.8705V32.475ZM43.8705 28.075V27.3875H43.183V28.075H43.8705ZM63.148 28.075H63.8355V27.3875H63.148V28.075ZM63.148 32.475V33.1625H63.8355V32.475H63.148ZM55.9705 32.475V31.7875H55.283V32.475H55.9705ZM55.9705 46.5V47.1875H56.658V46.5H55.9705ZM51.0205 46.5H51.708V32.475H51.0205H50.333V46.5H51.0205ZM51.0205 32.475V31.7875H43.8705V32.475V33.1625H51.0205V32.475ZM43.8705 32.475H44.558V28.075H43.8705H43.183V32.475H43.8705ZM43.8705 28.075V28.7625H63.148V28.075V27.3875H43.8705V28.075ZM63.148 28.075H62.4605V32.475H63.148H63.8355V28.075H63.148ZM63.148 32.475V31.7875H55.9705V32.475V33.1625H63.148V32.475ZM55.9705 32.475H55.283V46.5H55.9705H56.658V32.475H55.9705ZM55.9705 46.5V45.8125H51.0205V46.5V47.1875H55.9705V46.5Z" fill="#3E1D08" mask="url(#path-2-outside-1_50_4747)"/>
</svg>
